<svg width="164" height="268" viewBox="0 0 164 268" fill="none" xmlns="http://www.w3.org/2000/svg">
<path fill-rule="evenodd" clip-rule="evenodd" d="M83.3576 0.103159C94.1642 0.266611 101.93 0.647997 106.437 1.24732C110.184 1.73767 116.266 2.77287 120.013 3.53564C123.76 4.29841 129.354 5.76947 132.503 6.80467C135.653 7.83986 139.78 9.63782 141.735 10.7275C143.69 11.8172 146.188 13.6696 147.328 14.9228C148.469 16.1214 149.392 17.2656 149.338 17.4835C149.338 17.7559 119.036 17.9194 82 17.9194C37.4702 17.9194 14.6623 17.7559 14.6623 17.3745C14.6623 17.1021 15.694 15.7945 16.9974 14.4869C18.3007 13.2338 21.396 11.1634 23.894 9.91024C26.4464 8.65712 31.0623 6.91363 34.2119 5.93293C37.3616 5.0067 43.0636 3.69909 46.9735 2.93632C50.8834 2.22803 56.857 1.35629 60.2781 1.02938C63.6993 0.647997 66.6318 0.266611 66.7947 0.103159C66.9576 -0.00580847 74.3974 -0.0602923 83.3576 0.103159V0.103159ZM156.669 150.043L156.615 175.105C156.56 196.572 156.452 200.93 155.637 205.616C155.094 208.613 153.791 213.625 152.759 216.785C151.781 219.945 149.664 224.849 148.197 227.682C146.677 230.515 144.07 234.765 142.387 237.162C140.703 239.505 137.445 243.264 135.164 245.607C132.938 247.895 129.245 251.11 127.019 252.799C124.792 254.488 121.045 256.994 118.656 258.356C116.266 259.718 111.759 261.843 108.609 263.042C105.46 264.241 99.8662 265.821 96.1192 266.583C90.7974 267.673 87.7563 268 82 268C76.4066 268 73.2026 267.673 68.4238 266.692C65.0026 265.984 60.2238 264.731 57.8344 263.914C55.445 263.096 51.5351 261.407 49.1457 260.263C46.7563 259.065 42.7377 256.667 40.1854 254.978C37.6331 253.289 33.3974 249.857 30.7364 247.296C28.0755 244.735 24.3828 240.595 22.4278 238.034C20.5272 235.473 17.7033 230.951 16.1828 227.954C14.6623 224.958 12.8159 220.926 12.0556 218.965C11.3497 217.003 10.155 212.862 9.3947 209.702C8.14569 204.526 7.98278 202.51 7.71126 188.998C7.49404 177.72 7.60265 174.124 8.03709 174.451C8.41722 174.669 8.68874 175.269 8.68874 175.813C8.68874 176.304 9.44901 178.32 10.4265 180.281C11.404 182.243 13.5219 185.185 15.2053 186.928C17.2146 188.998 19.4954 190.633 22.2649 191.941C24.8172 193.139 27.7497 194.065 30.1391 194.392C32.4742 194.719 35.2437 194.719 37.3616 194.392C39.2079 194.12 41.7603 193.466 43.0093 192.976C44.3126 192.485 46.3219 191.45 47.5166 190.742C48.7113 190.034 50.5576 188.563 53.4901 185.729L55.1192 187.364C56.0424 188.29 57.8344 189.761 59.1921 190.633C60.5497 191.505 62.7219 192.594 64.0795 193.085C65.4371 193.575 67.9894 194.174 69.7815 194.447C71.7364 194.719 74.5603 194.719 76.8411 194.392C79.1219 194.065 82.1629 193.139 84.4437 192.05C86.8874 190.851 89.3854 189.053 91.3947 187.037C93.404 185.021 95.3046 182.406 96.445 180.009C97.4768 177.884 98.5629 174.724 98.8887 172.926C99.2146 171.128 99.3775 168.186 99.2146 166.388C99.0517 164.59 98.4 161.648 97.8027 159.85C97.151 158.052 95.7391 155.219 94.5987 153.584C93.5126 151.95 92.4808 150.424 92.3722 150.152C92.2636 149.934 106.709 149.825 156.669 150.043V150.043ZM82 20.6436C127.073 20.6436 164 20.7525 164 20.916C164 21.0794 162.045 26.0374 159.601 31.9762C157.158 37.8604 154.497 44.5075 152.053 50.6096H82C26.4464 50.6096 11.8927 50.4462 11.7298 49.9558C11.6212 49.5745 8.90596 42.9274 5.75629 35.2452C2.60662 27.5085 0 21.0794 0 20.916C0 20.7525 36.8728 20.6436 82 20.6436ZM20.0927 28.6527C19.4954 29.4699 18.9523 30.7775 18.9523 31.5403C19.0066 32.3031 19.5497 33.6652 20.2556 34.5369C20.9073 35.4631 23.2967 38.0239 25.5232 40.2577L29.596 44.344C39.0993 34.2645 39.6424 33.5017 39.6424 31.7038C39.6424 30.5596 39.2623 29.0885 38.8278 28.4347C38.3934 27.7264 37.1444 26.9092 36.0583 26.6368C34.4834 26.1464 33.6689 26.2009 32.257 26.9092C31.2252 27.3451 30.2477 28.1078 29.9762 28.5437C29.6503 29.252 29.4331 29.252 28.5099 28.3258C27.9126 27.7809 26.8808 27.0182 26.1748 26.6913C25.5232 26.3644 24.6543 26.0919 24.2742 26.1464C23.9483 26.1464 23.0795 26.3644 22.4278 26.6368C21.7762 26.8547 20.7444 27.7809 20.0927 28.6527ZM46.1589 29.252C45.2358 30.7231 45.1815 31.2679 45.6702 32.7934C45.996 33.7197 48.3311 36.7708 50.9377 39.4405L55.6623 44.3985C63.2106 36.4439 65.6543 33.6107 65.8715 32.9569C66.143 32.2486 65.9801 31.05 65.4914 29.7968C64.9483 28.5437 63.9709 27.3995 62.9934 26.9092C62.0702 26.4733 60.7126 26.2009 59.8437 26.3644C59.0291 26.5278 57.7801 27.2361 57.0199 27.9989L55.6623 29.361C53.5444 27.2906 52.2411 26.5278 51.3179 26.3644C50.3947 26.2009 49.1457 26.3644 48.4397 26.7457C47.7881 27.1271 46.7563 28.2713 46.1589 29.252V29.252ZM72.2252 28.8161C71.8993 29.4154 71.6821 30.5596 71.6821 31.4313C71.7364 32.2486 72.0079 33.4472 72.3881 34.1011C72.7682 34.7549 75.049 37.3701 77.4927 39.9308L82 44.6164C84.3351 41.9467 86.2901 39.9308 87.8649 38.4053C89.494 36.8797 91.1232 34.9728 91.5576 34.1555C91.9921 33.2838 92.3179 32.0307 92.3179 31.2679C92.3179 30.5051 91.7205 29.1975 90.9603 28.2713C90.1457 27.3451 88.8967 26.5278 87.8649 26.3099C86.8874 26.1464 85.6384 26.3099 84.9868 26.6913C84.3894 27.0182 83.3576 27.8354 82.6517 28.4892C81.9457 29.143 81.457 29.361 81.457 28.9796C81.457 28.5982 80.9139 27.9444 80.2079 27.5085C79.5563 27.0726 78.4159 26.5823 77.6556 26.4188C76.8954 26.2554 75.4834 26.4733 74.506 26.9092C73.5828 27.3451 72.551 28.2168 72.2252 28.8161ZM99.4861 27.9444C98.8344 28.5437 98.1285 29.8513 97.9656 30.7231C97.7483 31.6493 97.857 32.8479 98.1828 33.4472C98.5086 34.0466 100.898 36.7708 103.505 39.4405L108.283 44.344C115.506 36.8797 117.841 34.1011 118.167 33.2838C118.547 32.3576 118.601 31.1589 118.33 30.0692C118.004 28.9251 117.189 27.8354 116.049 27.1816C114.854 26.4188 113.823 26.1464 112.682 26.3644C111.813 26.5278 110.456 27.2906 109.695 27.9989L108.338 29.361C106.22 27.2906 104.862 26.5278 103.993 26.4188C103.125 26.2554 101.984 26.2554 101.55 26.4733C101.115 26.6368 100.192 27.2906 99.4861 27.9444ZM124.901 28.8161C124.575 29.4154 124.358 30.7775 124.358 31.8127C124.358 33.4472 125.009 34.428 129.354 39.0591L134.404 44.344C141.464 37.1521 143.907 34.5914 144.287 33.9921C144.776 33.2838 144.939 32.1941 144.776 30.9955C144.613 29.9603 143.853 28.4892 143.038 27.7264C142.061 26.7457 141.029 26.3644 139.672 26.3644C138.205 26.3644 137.174 26.8002 135.925 27.9989C134.458 29.4154 134.187 29.5244 133.752 28.7072C133.535 28.2168 132.558 27.3995 131.689 26.9637C130.82 26.4733 129.679 26.0919 129.245 26.0919C128.811 26.1464 127.779 26.4733 126.91 26.9092C126.095 27.3451 125.226 28.2168 124.901 28.8161V28.8161ZM82 54.9683C119.362 54.9683 149.881 55.1318 149.881 55.4042C149.881 55.6222 149.175 57.5291 146.677 63.4133H17.3232L15.694 59.5995C14.8252 57.5291 14.1192 55.6222 14.1192 55.4042C14.1192 55.1318 44.6384 54.9683 82 54.9683ZM121.642 68.0445H127.616L125.064 71.2045C123.706 72.8935 121.751 75.5632 120.828 77.0343C119.85 78.5598 118.113 81.7199 116.918 84.1172C115.723 86.5145 114.04 90.3283 113.279 92.5622C112.465 94.796 111.325 99.1002 110.673 102.097C109.75 106.347 109.532 109.452 109.532 116.263C109.532 123.128 109.75 126.179 110.673 130.592C111.325 133.643 112.628 138.165 113.497 140.671C114.42 143.123 115.126 145.194 115.126 145.302C115.126 145.357 114.04 145.411 110.238 145.411L108.609 140.127C107.74 137.184 106.6 132.553 106.057 129.884C105.405 126.397 105.134 122.365 105.134 115.99C105.134 108.798 105.405 105.856 106.383 101.28C107.034 98.1195 108.229 93.7063 108.935 91.4725C109.695 89.2387 111.542 84.9344 113.008 81.9378C114.528 78.9412 117.081 74.5825 118.71 72.2942L121.642 68.0445ZM139.78 68.0445L135.87 72.1307C133.698 74.3646 130.766 77.9605 129.299 80.1399C127.833 82.3192 125.715 85.9151 124.629 88.2035C123.489 90.4373 121.914 94.3601 121.045 96.9209C120.23 99.4271 119.253 103.35 118.873 105.638C118.438 107.872 118.167 112.776 118.167 116.535C118.167 120.73 118.547 125.198 119.144 128.249C119.633 130.919 120.774 134.951 121.588 137.239C122.403 139.473 123.489 142.197 124.846 145.411H122.566C120.556 145.411 120.176 145.194 119.525 143.886C119.09 143.069 118.058 140.29 117.189 137.784C116.321 135.223 115.234 131.028 114.691 128.521C114.148 125.579 113.823 121.112 113.823 116.535C113.823 112.449 114.094 107.327 114.528 105.093C114.909 102.805 115.94 98.6644 116.864 95.8312C117.732 92.9436 119.47 88.6938 120.665 86.2965C121.86 83.8992 123.977 80.1943 125.335 78.124C126.747 75.9991 129.136 72.8935 130.766 71.15C133.644 68.0445 133.698 68.0445 139.78 68.0445V68.0445ZM146.84 68.0445H150.804C152.976 68.0445 154.768 68.0989 154.768 68.1534C154.768 68.2079 153.248 69.2431 151.347 70.4417C149.501 71.6404 145.862 74.6915 143.256 77.2522C140.703 79.813 137.554 83.5179 136.25 85.4793C134.947 87.3862 132.992 90.9821 131.852 93.3794C130.766 95.7767 129.299 99.5361 128.702 101.824C128.105 104.058 127.344 108.199 127.073 111.087C126.801 114.029 126.801 118.442 127.073 121.439C127.344 124.272 128.159 128.739 128.919 131.355C129.679 133.97 131.254 138.111 132.449 140.508C133.644 142.851 134.621 144.976 134.621 145.139C134.621 145.248 133.481 145.302 129.517 145.139L127.507 140.508C126.367 137.947 124.955 133.915 124.303 131.518C123.706 129.121 122.946 124.708 122.62 121.711C122.185 117.734 122.185 114.737 122.62 110.814C122.946 107.818 123.76 103.404 124.358 101.007C124.955 98.6099 126.693 94.0332 128.213 90.9277C129.679 87.7676 131.797 83.9537 132.883 82.4827C133.97 80.9571 135.925 78.5054 137.228 77.0343C138.531 75.5087 141.246 72.8935 143.256 71.15L146.84 68.0445ZM34.1576 68.8617C35.7868 69.0252 38.5563 69.8424 40.4026 70.7142C42.4119 71.6949 44.5298 73.2749 45.996 74.9094C47.2993 76.435 48.657 78.7778 49.1457 80.3033C49.8517 82.3737 49.9603 84.2806 49.743 88.2035C49.5258 91.9629 48.9828 94.6326 47.8424 98.0106C46.9192 100.571 45.7788 103.568 45.3444 104.658C44.8556 105.802 44.4755 107.327 44.4755 108.09C44.4755 108.907 44.9099 109.67 45.5616 109.997C46.3219 110.378 47.5166 110.269 53.0556 108.635L55.0106 110.378C56.2053 111.523 57.5086 112.176 58.4861 112.176C59.3007 112.176 60.2781 111.849 60.6583 111.468C60.9841 111.087 61.3099 110.215 61.2556 109.452C61.2556 108.689 61.6358 107.763 62.0702 107.382C62.5589 107 63.3735 106.782 63.8623 106.891C64.4053 106.946 65.1113 107.6 65.4914 108.362C65.9258 109.343 65.9801 110.324 65.6 111.74C65.2742 113.048 64.4596 114.247 63.3192 115.118C62.3417 115.827 60.9298 116.535 60.2238 116.698C59.4636 116.916 57.9974 116.807 56.9656 116.535C55.8795 116.263 54.4132 115.554 53.7073 114.955C52.4583 113.974 52.0238 113.92 49.0914 114.465C46.2132 114.955 45.5616 114.901 43.6609 114.029C42.249 113.32 41.3258 112.394 40.8371 111.196C40.457 110.215 40.1311 108.689 40.1311 107.818C40.1311 106.891 40.8914 104.167 41.8146 101.661C42.7377 99.2092 43.8238 96.2126 44.204 95.0139C44.6384 93.8153 44.747 92.6711 44.5841 92.4532C44.3669 92.2353 43.498 92.6711 42.6834 93.3794C41.8689 94.1422 40.294 94.9595 39.1536 95.2864C38.0675 95.5588 34.3748 95.8312 24.9258 95.8312L24.0026 94.0332C23.5139 93.0525 23.0252 90.9277 22.8623 89.2931C22.6993 87.6586 22.8623 85.4248 23.1881 84.3896C23.5139 83.3544 24.8715 81.4475 26.2291 80.1399C28.1841 78.3419 29.2702 77.7971 31.2795 77.5246C32.6914 77.3067 35.3523 77.4702 37.1444 77.8515C38.9364 78.1784 41.0543 78.8322 41.8689 79.2681C42.6834 79.704 43.498 79.9219 43.6609 79.7585C43.7695 79.595 43.5523 78.9412 43.0636 78.2329C42.6291 77.5791 41.2172 76.326 39.9682 75.5087C38.7192 74.6915 36.547 73.7653 35.2437 73.4928C33.6689 73.1659 31.8768 73.2204 30.3563 73.5473C28.9987 73.8742 27.1523 74.528 26.2834 75.0729C25.3603 75.6722 24.0026 76.9253 23.2424 77.906C22.4278 78.9412 21.0702 81.2295 20.147 83.0275C19.2781 84.8255 17.9205 88.258 17.1603 90.6552C16.4 93.0525 15.3682 97.4657 14.8252 100.462C14.1735 104.276 13.8477 108.526 13.902 114.628C13.902 119.423 14.2278 125.307 14.5536 127.704C14.9338 130.102 15.857 134.079 16.5629 136.531C17.2689 139.037 18.7894 143.014 19.8755 145.411C21.0159 147.809 21.9391 149.825 21.9391 149.77C21.9391 149.77 23.2424 149.171 24.9258 148.408C26.6636 147.591 29.5417 146.883 35.7868 146.229V144.158C35.7868 142.687 36.0583 141.979 36.8728 141.598C37.4702 141.271 38.0676 141.053 38.2305 141.053C38.3391 141.053 38.8278 141.434 39.3166 141.87C39.9682 142.524 40.1311 144.867 40.1311 156.036C40.1311 167.641 39.9682 169.657 39.1536 171.346C38.6649 172.435 37.5245 173.689 36.7099 174.07C35.8954 174.506 34.3205 174.833 33.1801 174.833C32.094 174.833 30.6278 174.451 29.9219 174.015C29.2702 173.58 28.347 172.435 27.9126 171.564C27.4238 170.637 27.098 169.221 27.098 168.404C27.098 167.586 27.5868 166.115 28.1841 165.135C28.7815 164.154 30.0305 163.01 31.0079 162.519C31.9854 162.029 33.4517 161.702 34.2662 161.811C35.5695 161.975 35.7325 161.866 35.7868 160.503C35.7868 159.087 35.6238 159.032 33.343 159.032C31.9854 159.032 30.1934 159.359 29.3788 159.795C28.5642 160.177 27.2066 161.266 26.3921 162.247C25.5775 163.173 24.6543 164.917 24.3828 166.115C24.0026 167.641 24.0026 169.003 24.4371 170.583C24.7629 171.891 25.5775 173.58 26.1748 174.451C26.8265 175.269 28.347 176.467 29.5417 177.012C30.7364 177.611 32.5285 178.102 33.6146 178.102C34.6464 178.102 36.6013 177.557 37.9046 176.849C39.3166 176.14 40.8914 174.778 43.1179 171.346L43.2808 156.908C43.3894 146.774 43.6609 142.197 44.0954 141.707C44.4212 141.325 45.0185 140.998 45.3987 140.998C45.7788 141.053 46.4305 141.434 46.9192 141.87C47.5709 142.524 47.7338 144.921 47.7338 156.145C47.7338 166.497 47.5166 170.311 46.9192 172.381C46.4848 173.852 45.2901 176.031 44.3126 177.23C43.3351 178.374 41.4344 179.954 40.1311 180.771C38.0676 181.97 36.9815 182.188 33.6146 182.188C30.1934 182.188 29.1073 181.97 27.098 180.771C25.7404 179.954 23.8397 178.374 22.8623 177.23C21.8848 176.031 20.6901 173.743 20.2013 172.109C19.6583 170.147 19.4411 168.24 19.7126 166.66C19.8755 165.298 20.7444 163.01 21.5589 161.539C22.3192 160.068 23.7311 158.324 24.6543 157.616C25.5232 156.908 27.2609 155.981 28.4556 155.436C29.6503 154.946 31.7682 154.51 33.1801 154.456C35.7324 154.401 35.7868 154.401 35.7868 150.587L32.257 150.969C30.302 151.187 27.5324 151.95 26.1205 152.603C24.7086 153.257 22.5364 154.783 21.3417 156.036C20.147 157.234 18.5722 159.414 17.8662 160.939C16.9974 162.737 16.5086 164.917 16.3457 167.477C16.1828 170.365 16.3457 172 17.2146 174.288C17.8119 175.922 19.2781 178.374 20.4728 179.736C21.6132 181.098 23.894 182.896 25.5232 183.823C28.1841 185.294 28.8901 185.457 33.6146 185.457C38.3391 185.457 38.9907 185.294 41.706 183.823C43.2808 182.896 45.5616 181.098 46.7563 179.736C47.8967 178.374 49.3086 175.977 49.906 174.397C50.8834 171.836 50.9921 170.093 50.9921 157.125C50.9921 144.703 51.1007 142.578 51.8066 141.87C52.2954 141.434 52.947 141.053 53.3272 140.998C53.653 140.998 54.2503 141.325 54.5762 141.707C55.0649 142.197 55.2821 146.937 55.6079 172.381L57.3457 176.086C58.4861 178.429 59.898 180.39 61.4185 181.643C62.7219 182.678 65.0026 183.986 66.5775 184.64C68.3152 185.294 70.7589 185.729 72.8225 185.729C74.7232 185.729 77.3298 185.348 78.6874 184.858C79.9907 184.422 82.1086 183.278 83.3033 182.351C84.498 181.48 86.1272 179.845 86.8874 178.756C87.702 177.611 88.7881 175.65 89.2768 174.288C89.7656 172.926 90.2 170.256 90.2 168.295C90.2543 165.516 89.9285 163.99 88.6795 161.266C87.6477 159.087 86.1815 156.962 84.6609 155.545C83.3033 154.347 81.0768 152.876 79.7735 152.276C78.3073 151.623 76.0265 151.187 74.0715 151.187C70.8132 151.132 70.8132 151.132 70.8132 152.712C70.8132 154.238 70.9219 154.292 73.6371 154.51C75.2119 154.565 77.2755 155.001 78.253 155.382C79.2305 155.763 81.0225 156.962 82.2172 158.052C83.4119 159.087 84.9324 161.212 85.6384 162.901C86.6702 165.244 86.8874 166.497 86.7245 169.112C86.5616 170.91 86.0729 173.253 85.5841 174.288C85.0954 175.323 83.8464 177.012 82.8689 178.047C81.8914 179.028 80.1536 180.336 78.9589 180.935C77.7642 181.534 75.6464 182.134 74.343 182.297C72.9854 182.46 70.7589 182.297 69.4556 181.97C68.098 181.589 65.8172 180.445 64.4053 179.409C62.6675 178.156 61.4185 176.631 59.0834 171.836L59.2464 156.908C59.355 143.613 59.4636 141.924 60.3324 141.38C61.0384 140.889 61.4728 140.998 62.3417 141.87C63.4821 142.905 63.4821 143.45 63.4821 156.962C63.4821 167.804 63.645 171.346 64.1881 172.49C64.6225 173.307 65.8172 174.778 66.9033 175.759C68.2066 176.958 69.6729 177.666 71.1934 177.884C72.4967 178.047 74.343 177.938 75.4291 177.611C76.4609 177.339 78.0358 176.467 78.9046 175.813C79.7735 175.105 80.9139 173.58 81.457 172.381C82 171.182 82.4344 169.33 82.4344 168.295C82.4344 167.259 81.9457 165.353 81.3483 164.045C80.6424 162.519 79.5563 161.321 77.9815 160.395C76.4066 159.468 74.8318 159.032 73.094 159.032C70.596 159.032 70.5417 159.087 70.5417 160.667C70.5417 162.138 70.6503 162.247 72.008 161.975C72.9311 161.757 74.2887 161.975 75.4291 162.519C76.4609 162.955 77.7642 164.099 78.253 165.026C78.796 165.897 79.2305 167.641 79.2305 168.839C79.2305 170.583 78.8503 171.4 77.3841 172.926C75.8636 174.506 75.1033 174.833 73.3113 174.833C72.0623 174.833 70.3245 174.397 69.4013 173.852C68.5325 173.362 67.4464 172.109 66.9576 171.128C66.3603 169.711 66.1974 166.66 66.1974 156.036C66.1974 144.594 66.306 142.578 67.0119 141.87C67.5007 141.434 67.9894 141.053 68.098 141.053C68.2609 141.053 68.8583 141.271 69.4556 141.598C70.2159 141.979 70.5417 142.687 70.4874 146.229L74.4517 146.61C77.0945 146.901 79.5382 147.591 81.7828 148.68C83.6834 149.552 86.3987 151.459 87.9192 152.876C89.6569 154.51 91.3404 156.853 92.4265 159.032C93.7841 161.866 94.1642 163.446 94.3272 166.933C94.4358 169.33 94.2728 172.49 93.947 174.015C93.6212 175.487 92.3722 178.265 91.1775 180.118C89.9828 182.025 87.8106 184.476 86.3987 185.62C84.9868 186.765 82.3801 188.236 80.5881 188.944C78.1444 189.925 76.1894 190.252 72.9854 190.252C69.7815 190.252 67.7722 189.979 65.3828 189.053C63.5907 188.399 60.9841 187.037 59.6808 186.056C58.3232 185.021 56.3682 182.951 55.3364 181.425C54.2503 179.9 53.2728 178.647 53.1642 178.647C53.0013 178.647 52.1325 179.791 51.2636 181.153C50.3404 182.46 48.3854 184.531 46.9192 185.729C45.3987 186.928 42.7377 188.399 40.9457 189.053C38.5563 189.979 36.4927 190.252 33.343 190.252C30.0848 190.252 28.1298 189.925 25.7404 188.944C23.9483 188.236 21.2874 186.765 19.8755 185.62C18.4636 184.476 16.4543 182.242 15.4225 180.662C14.3364 179.082 13.1417 176.576 12.653 175.105C12.2185 173.58 11.8384 170.637 11.8384 168.567C11.8384 166.17 12.2728 163.5 12.9788 161.484C13.5762 159.686 15.0424 156.853 18.4636 152.222L16.5629 148.408C15.4768 146.283 14.0106 142.851 13.3046 140.78C12.5987 138.655 11.5669 134.896 10.9695 132.335C10.155 128.521 9.99205 125.416 9.99205 114.901C9.99205 104.658 10.155 101.171 10.9695 97.4657C11.4583 94.905 12.5444 90.8732 13.3046 88.4759C14.0649 86.0786 15.5311 82.5372 16.5086 80.5757C17.5404 78.6143 19.1695 76.0536 20.2013 74.8549C21.1788 73.6563 22.9709 72.0763 24.1113 71.3135C25.306 70.5507 27.3695 69.679 28.7272 69.2976C30.0848 68.9162 32.4742 68.6983 34.1576 68.8617V68.8617ZM35.2437 90.9277C42.7921 90.9277 45.1272 90.7097 45.2358 90.4918C45.3987 90.2739 44.9642 89.5656 44.3126 88.9662C43.6609 88.3124 42.5748 87.4952 41.8689 87.1683C41.2172 86.8414 39.4252 86.569 37.9589 86.569H35.2437V90.9277ZM31.551 168.622C31.6596 169.112 32.1483 169.82 32.6371 170.147C33.343 170.583 33.8318 170.583 34.5377 170.147C35.0808 169.82 35.5152 169.112 35.5152 168.513C35.5695 167.968 35.1894 167.205 34.7007 166.824C34.2662 166.442 33.7232 166.115 33.506 166.115C33.2887 166.115 32.7457 166.497 32.257 166.933C31.8225 167.368 31.4967 168.131 31.551 168.622ZM71.1934 168.839C71.302 169.929 71.6278 170.202 72.9854 170.202C74.2887 170.202 74.6146 169.929 74.7232 168.839C74.8318 168.077 74.5603 167.15 74.1801 166.769C73.8 166.388 73.257 166.061 72.8768 166.061C72.551 166.115 72.0079 166.388 71.6278 166.769C71.302 167.15 71.0848 168.077 71.1934 168.839V168.839ZM69.4556 69.3521C76.6781 69.5155 79.1762 69.7879 82.4887 70.7142C84.7152 71.368 87.9735 72.7301 89.7656 73.6563C91.5576 74.637 94.2185 76.4895 95.6848 77.8515C97.857 79.813 98.2914 80.5213 98.0199 81.502C97.8026 82.2102 97.151 82.8641 96.445 83.082C95.5762 83.2999 94.7616 82.9185 93.6212 81.7744C92.698 80.8482 90.743 79.3771 89.2768 78.4509C87.7563 77.4702 84.6066 76.0536 82.2172 75.2363C78.0901 73.8742 77.2755 73.7653 67.2834 73.7653C61.4185 73.7653 56.3682 73.5473 55.9881 73.3294C55.6079 73.1115 55.3364 72.4576 55.3364 71.8583C55.3364 71.259 55.6079 70.6052 55.9881 70.3873C56.3682 70.1693 57.5086 69.7879 58.5947 69.57C59.6265 69.3521 64.5139 69.2431 69.4556 69.3521ZM155.854 72.948C156.126 72.948 156.343 74.0377 156.343 75.3998C156.343 77.6881 156.18 77.9605 153.736 79.704C152.325 80.7392 149.826 82.973 148.143 84.7165C146.514 86.5145 144.287 89.1297 143.31 90.6552C142.278 92.1263 140.649 95.0684 139.672 97.1933C138.694 99.2637 137.499 102.478 137.011 104.276C136.468 106.129 135.979 110.542 135.816 114.628C135.653 119.041 135.816 122.91 136.25 124.98C136.576 126.778 137.608 130.21 138.477 132.608C139.291 135.005 141.246 138.819 145.374 145.139L142.821 145.302C140.703 145.411 140.16 145.248 139.346 144.213C138.857 143.505 137.445 140.998 136.25 138.601C135.056 136.204 133.589 132.39 132.992 130.156C132.34 127.922 131.634 123.836 131.363 121.166C131.091 118.279 131.091 114.247 131.417 111.359C131.689 108.635 132.286 104.984 132.775 103.187C133.264 101.389 134.567 97.9561 135.653 95.5588C136.739 93.1615 138.748 89.62 140.052 87.6586C141.355 85.6972 143.799 82.7551 145.428 81.0661C147.111 79.3771 149.989 76.8708 151.89 75.5087C153.791 74.0922 155.583 72.948 155.854 72.948V72.948ZM68.3695 78.124C72.9311 78.2329 76.8954 78.6143 78.9589 79.1592C80.751 79.6495 83.792 80.7937 85.747 81.7744C87.9735 82.8641 90.4715 84.7165 95.7391 90.1104L91.3947 90.2194C87.4848 90.3828 86.9417 90.2738 85.747 89.0752C84.9868 88.3669 83.8464 87.4952 83.1404 87.1683C82.4887 86.8414 80.6967 86.569 76.5152 86.569V90.9277L86.5616 91.2001L84.8781 92.8346C83.955 93.7063 82.1629 94.796 80.8053 95.1774C79.2848 95.6133 76.1351 95.8312 65.9801 95.5588L65.3285 92.5622C64.9483 90.9277 64.0252 88.2035 63.3192 86.569C62.6132 84.9344 61.0927 82.3737 58.0517 78.3964L59.5179 78.1784C60.3324 78.0695 64.2967 78.015 68.3695 78.124V78.124ZM156.072 83.1365L156.18 85.9696C156.343 88.6393 156.234 88.8573 153.465 91.8539C151.89 93.5974 149.609 96.9754 148.36 99.3726C147.166 101.77 145.754 105.693 145.211 108.09C144.45 111.414 144.287 113.865 144.505 118.442C144.722 123.291 145.048 125.252 146.405 128.794C147.274 131.191 148.686 134.242 149.501 135.604C150.37 136.966 152.216 139.473 153.682 141.162C155.148 142.905 156.343 144.54 156.343 144.867C156.343 145.139 155.203 145.357 153.736 145.248C151.347 145.139 151.075 144.976 148.577 141.87C147.166 140.072 145.156 136.858 144.179 134.787C143.147 132.662 141.898 129.611 141.409 127.977C140.812 126.179 140.377 122.256 140.16 118.17C139.943 112.34 140.052 110.651 141.083 106.728C141.681 104.167 142.984 100.517 143.907 98.5554C144.776 96.594 146.568 93.5429 147.872 91.7449C149.121 89.9469 151.51 87.2772 153.139 85.8062L156.072 83.1365ZM155.746 95.0684L156.072 98.8278C156.289 102.097 156.126 103.132 154.877 106.183C153.736 108.907 153.411 110.923 153.193 115.173C152.976 120.076 153.085 121.003 154.442 124.708C155.42 127.432 156.017 130.21 156.397 137.511L155.04 135.877C154.279 134.951 152.976 132.771 152.053 130.973C151.13 129.175 150.044 126.07 149.555 124.163C149.121 122.201 148.74 118.66 148.74 116.263C148.74 113.865 149.121 110.433 149.555 108.635C150.044 106.837 150.913 104.222 151.51 102.914C152.053 101.552 153.302 99.2092 154.171 97.7381L155.746 95.0684ZM21.0702 99.1002H22.8623C23.7854 99.1547 25.6861 99.6451 27.0437 100.244C28.4013 100.844 30.302 102.151 31.2795 103.078C32.3113 104.058 33.6146 105.802 34.2119 107C34.8636 108.199 35.4609 110.542 35.6238 112.176C35.7868 114.247 35.5695 116.099 34.9179 118.17C34.2119 120.24 33.1258 121.983 31.4424 123.672C29.8676 125.252 27.9669 126.506 26.2291 127.05C24.7629 127.595 22.9709 127.977 21.0702 127.977V99.1002ZM85.1497 99.1547C86.5073 99.1002 88.6795 99.4816 90.0371 99.9175C91.3947 100.353 93.4583 101.552 94.5987 102.533C95.7391 103.513 97.3682 105.529 98.1285 107C99.2146 109.18 99.5404 110.542 99.5404 113.538C99.5404 116.807 99.2689 117.788 97.9113 120.294C97.0424 121.929 95.4132 123.89 94.3815 124.762C93.3497 125.579 91.2861 126.724 89.7656 127.214C87.9192 127.868 86.1272 128.086 84.0636 127.868C82.4344 127.704 80.0993 127.105 78.9046 126.451C77.7099 125.852 75.9722 124.544 74.9947 123.563C74.0715 122.528 72.7682 120.621 72.1709 119.259C71.4649 117.679 71.0848 115.663 71.0848 113.538C71.0848 111.414 71.4649 109.398 72.1709 107.818C72.7682 106.456 74.0715 104.549 74.9947 103.568C75.9722 102.587 77.4384 101.334 78.253 100.898C79.1219 100.408 80.4252 99.863 81.2397 99.6451C82.0543 99.3726 83.7921 99.2092 85.1497 99.1547V99.1547ZM48.7656 120.349C48.9285 120.349 50.0689 121.057 53.653 123.618L56.0967 121.983C57.4543 121.112 58.649 120.349 58.8119 120.349C58.9748 120.349 60.8212 121.602 62.8848 123.073C65.0027 124.599 66.5775 126.07 66.4146 126.342C66.2517 126.669 61.4728 126.887 53.8159 126.941C46.9735 126.941 41.2715 126.724 41.0543 126.506C40.8371 126.288 42.4119 124.817 44.5298 123.237C46.702 121.657 48.6027 120.349 48.7656 120.349V120.349ZM43.0636 131.3L64.2424 131.246L63.1563 132.335C62.5589 132.989 60.9841 134.024 59.6265 134.678C57.8887 135.441 56.151 135.822 53.653 135.768C51.155 135.768 49.5258 135.441 47.951 134.624C46.7563 133.97 45.1815 132.989 44.4212 132.39L43.0636 131.3Z" fill="black"/>
</svg>
