<svg width="168" height="273" viewBox="0 0 168 273" fill="none" xmlns="http://www.w3.org/2000/svg">
<path fill-rule="evenodd" clip-rule="evenodd" d="M30.1323 0.110976C30.2439 0.221951 33.3113 3.82866 37.0479 8.2122C40.7288 12.5402 43.7963 16.2024 43.7963 16.3689C43.7963 16.5354 37.4941 16.6463 15.9106 16.6463L22.9936 8.32317C26.8418 3.71768 30.0765 0.0554878 30.1323 0.110976ZM66.4951 0.776829C66.8855 1.10976 70.0645 4.77195 79.936 16.3689L72.8531 16.5354C69.0049 16.5909 62.7585 16.5909 52.1062 16.3689L58.9103 8.26768C64.2643 1.94207 65.9374 0.277439 66.4951 0.776829V0.776829ZM101.91 0L108.1 7.32439C111.558 11.3195 114.681 15.0372 115.016 15.6476C115.741 16.5909 115.239 16.6463 87.8555 16.6463L89.1383 15.0927C89.8075 14.2604 92.9307 10.4872 96.1097 6.76951L101.91 0ZM138.44 0.721341C138.775 1.10976 142.009 4.82744 152.048 16.6463H138.105C130.409 16.6463 124.218 16.4244 124.274 16.2024C124.386 15.9805 127.453 12.2073 131.078 7.87927C136.265 1.77561 137.938 0.166463 138.44 0.721341V0.721341ZM160.693 152.869L160.637 178.393C160.581 200.255 160.414 204.75 159.577 209.466C159.075 212.518 157.737 217.623 156.677 220.841C155.618 224.06 153.498 229.054 151.992 231.939C150.431 234.824 147.754 239.152 146.025 241.594C144.24 243.98 140.95 247.864 138.607 250.195C136.265 252.525 132.528 255.799 130.242 257.519C127.955 259.239 124.107 261.791 121.653 263.179C119.199 264.566 114.514 266.73 111.335 267.951C108.1 269.171 102.3 270.78 98.5078 271.557C93.0423 272.723 89.9191 273 84.0073 273C78.2071 273 74.9724 272.723 70.0645 271.668C66.4952 270.947 61.6431 269.671 59.1891 268.838C56.7352 268.006 52.7197 266.341 50.2657 265.121C47.8118 263.9 43.6847 261.514 41.0635 259.738C38.4422 258.018 34.0921 254.523 31.3593 251.915C28.6265 249.307 24.7783 245.09 22.8263 242.482C20.8743 239.874 17.9742 235.268 16.4126 232.216C14.851 229.165 12.9548 225.059 12.174 223.061C11.4489 221.063 10.1662 216.846 9.44118 213.628C8.15845 208.357 7.99113 206.304 7.71228 192.543C7.48919 181.057 7.54496 177.395 8.0469 177.727C8.38153 177.949 8.71616 178.56 8.71616 179.115C8.66039 179.614 9.49696 181.667 10.5008 183.665C11.5047 185.662 13.6798 188.659 15.3529 190.434C17.4722 192.543 19.8146 194.207 22.659 195.539C25.2802 196.76 28.2919 197.703 30.7458 198.036C33.144 198.369 35.9883 198.369 38.1076 198.036C40.0596 197.759 42.6808 197.148 43.9636 196.593C45.3021 196.094 47.3656 195.095 48.5926 194.318C49.8196 193.597 51.66 192.099 54.7274 189.213L56.4006 190.934C57.2929 191.821 59.1891 193.32 60.5834 194.207C61.9219 195.095 64.2085 196.205 65.6028 196.704C66.9413 197.204 69.6183 197.814 71.4588 198.091C73.4666 198.369 76.3109 198.369 78.709 198.036C81.0514 197.703 84.1189 196.76 86.517 195.65C89.0267 194.429 91.5364 192.598 93.6557 190.545C95.7193 188.492 97.6155 185.829 98.8425 183.387C99.8463 181.279 101.018 178.005 101.352 176.174C101.687 174.343 101.798 171.346 101.687 169.515C101.519 167.684 100.85 164.688 100.181 162.857C99.5675 161.026 98.1174 158.14 96.9462 156.476C95.8308 154.811 94.7712 153.257 94.6596 152.98C94.5481 152.758 109.383 152.647 160.693 152.869V152.869ZM83.9515 21.0854C151.1 21.0854 168.166 21.2518 167.999 21.8067C167.887 22.1396 165.043 29.0201 155.673 51.6591L11.9509 51.3262L6.15068 37.1768C2.91595 29.4085 0.183161 22.5835 0.0158474 22.0841C-0.31878 21.1409 3.91983 21.0854 83.9515 21.0854V21.0854ZM24.611 32.1274C23.384 33.2372 21.7666 34.5134 21.0974 34.9573C19.8146 35.7896 19.8704 35.8451 25.0014 41.061L30.1881 46.3323L40.2269 36.289C32.1958 28.3543 29.7977 26.0793 29.7419 26.0793C29.6861 26.0793 28.9611 26.9671 28.2361 28.0768C27.4553 29.1866 25.8379 31.0177 24.611 32.1274ZM46.9194 36.511C51.2138 40.0067 53.4447 42.2262 54.6159 43.6689L56.791 46.3323L67.2759 36.0671C65.324 34.5689 63.7624 33.2372 62.5354 32.1274C61.3084 31.0177 59.6353 29.1866 58.9103 28.0768C58.1295 27.0226 57.3487 26.1348 57.2371 26.1348C57.0698 26.1902 54.6717 28.5207 51.9389 31.3506L46.9194 36.511ZM76.534 33.7366L73.4108 36.0671C77.9283 39.8402 80.2149 42.1152 81.4418 43.6134C82.6688 45.1116 83.7285 46.4433 83.7842 46.6098C83.8958 46.7762 84.5093 46.1659 85.2343 45.2226C85.9035 44.3348 87.5767 42.4482 88.971 41.061C90.3652 39.6738 92.2615 38.0091 93.098 37.4543L94.7154 36.3445C89.7517 32.4604 87.4094 30.1854 86.2939 28.7427C85.1785 27.2445 84.1189 26.0793 83.9515 26.0793C83.7842 26.0793 82.7246 27.3 81.6649 28.7427C80.5495 30.1854 78.2629 32.4049 76.534 33.7366V33.7366ZM105.479 32.1274C104.252 33.2372 102.635 34.5134 101.966 34.9573C100.683 35.7896 100.739 35.8451 105.87 41.061L111.056 46.3323L121.095 36.289C113.064 28.4098 110.666 26.0793 110.61 26.0793C110.554 26.0793 109.829 27.0226 109.104 28.0768C108.324 29.1866 106.706 31.0177 105.479 32.1274ZM127.788 36.511C132.082 40.0067 134.313 42.2262 135.484 43.6689L137.659 46.3323L148.144 36.0671C146.192 34.5689 144.631 33.2372 143.404 32.1274C142.177 31.0177 140.504 29.1866 139.779 28.1323C138.998 27.0226 138.217 26.1348 138.105 26.1348C137.938 26.1902 135.54 28.5207 132.807 31.3506L127.788 36.511ZM84.0073 56.0427C122.322 56.0427 153.721 56.2646 153.721 56.4866C153.721 56.7085 152.996 58.6506 150.431 64.6433H17.5838L15.9106 60.7591C15.0183 58.6506 14.2933 56.7085 14.2933 56.4866C14.2933 56.2646 45.6367 56.0427 84.0073 56.0427V56.0427ZM123.047 69.3598L128.457 74.5756C131.469 77.4055 135.205 81.6226 136.767 83.8421C138.328 86.1171 140.392 89.4463 141.284 91.2774C142.232 93.1085 143.627 96.3823 144.352 98.4909C145.133 100.655 146.192 104.539 146.694 107.091C147.196 109.866 147.587 114.638 147.587 118.633C147.587 122.351 147.196 127.345 146.75 129.73C146.248 132.061 145.523 135.279 145.021 136.777C144.519 138.331 143.181 141.494 140.057 148.208L135.038 148.152L137.659 142.77C139.109 139.774 140.838 135.335 141.563 132.893C142.567 129.12 142.79 127.012 142.79 118.744C142.846 110.31 142.679 108.423 141.563 104.317C140.838 101.765 139.165 97.3811 137.827 94.6067C136.544 91.8878 133.923 87.6152 132.082 85.1738C130.242 82.7323 127.286 79.4031 125.501 77.7384C123.661 76.1293 120.482 73.6323 118.418 72.1896C116.355 70.8024 114.626 69.5817 114.626 69.5262C114.681 69.4152 116.522 69.3598 123.047 69.3598V69.3598ZM136.432 69.3598L139.277 72.5781C140.838 74.2982 143.348 77.5165 144.798 79.625C146.248 81.789 148.312 85.2848 149.371 87.3933C150.431 89.5573 151.992 93.164 152.829 95.439C153.666 97.7695 154.837 102.098 155.45 105.149C156.287 109.034 156.621 112.918 156.621 117.912C156.621 121.907 156.343 127.012 155.952 129.287C155.618 131.617 154.669 135.612 153.889 138.165C153.108 140.773 151.937 144.102 151.267 145.545C150.096 148.152 149.985 148.208 147.698 148.208C146.415 148.152 145.356 148.097 145.3 148.041C145.3 147.93 146.081 146.155 147.085 143.991C148.033 141.882 149.371 137.887 150.096 135.113C150.821 132.394 151.714 127.511 151.992 124.293C152.327 120.575 152.327 116.469 151.992 112.918C151.714 109.866 150.933 105.26 150.319 102.652C149.65 100.1 148.2 95.8274 147.085 93.2195C145.969 90.6671 143.906 86.672 142.456 84.3415C141.006 82.0665 138.105 78.1823 135.986 75.7409C133.867 73.2994 131.524 70.9134 130.799 70.3585C129.461 69.4707 129.517 69.4152 136.432 69.3598V69.3598ZM34.9286 70.1921C36.8806 70.3585 39.6134 71.0244 40.8962 71.6348C42.2347 72.1896 44.4655 73.7988 45.9156 75.1305C47.4214 76.4622 49.0945 78.7372 49.7638 80.2354C50.433 81.7335 51.1581 84.2305 51.3254 85.7287C51.5485 87.2823 51.4369 90.2787 51.1023 92.3872C50.7119 94.5512 49.3176 99.2677 47.9233 102.93C46.5848 106.592 45.5809 110.088 45.6925 110.698C45.8598 111.309 46.4175 111.974 46.9752 112.141C47.5887 112.363 49.5407 112.141 51.3811 111.697C54.5043 110.976 54.7832 110.976 55.8428 111.974C56.4563 112.585 57.516 113.362 58.1852 113.695C58.9103 114.027 59.9141 114.305 60.5276 114.305C61.1411 114.305 62.0335 113.861 62.5354 113.362C63.0373 112.807 63.3162 112.085 63.0931 111.697C62.9258 111.309 63.0373 110.476 63.372 109.866C63.7624 109.089 64.3758 108.812 65.4355 108.923C66.4951 109.034 67.1086 109.477 67.4433 110.421C67.7221 111.198 67.7779 112.585 67.5548 113.473C67.3317 114.416 66.3278 115.97 65.324 116.968C63.7624 118.522 63.0931 118.744 60.7507 118.744C58.9103 118.744 57.3487 118.3 55.6755 117.357C53.5562 116.136 53.0543 116.025 50.8234 116.524C49.1503 116.894 47.5701 116.894 46.0829 116.524C44.6886 116.191 43.4059 115.359 42.6808 114.471C42.0673 113.639 41.3981 112.085 41.2308 110.976C41.0077 109.533 41.5654 107.313 43.5174 101.987C44.9117 98.1024 46.0829 94.4402 46.0829 93.9409C46.0829 93.0531 46.0271 93.053 45.3579 93.8854C44.9675 94.3848 43.7963 95.328 42.7366 95.9384C41.0077 96.9927 39.8365 97.1037 25.1687 97.1592L24.1648 94.2183C23.6071 92.6091 23.1609 90.4451 23.2167 89.3354C23.2167 88.2811 23.6628 86.3945 24.2206 85.1738C24.7783 83.953 26.1726 82.1774 27.288 81.1787C28.6265 80.0134 30.1323 79.2366 31.6939 79.0146C33.0324 78.8482 35.319 78.8482 36.8806 79.0701C38.3865 79.2921 40.8404 79.9579 42.2904 80.5128C44.2424 81.2896 44.9675 81.4006 44.9117 80.9012C44.9117 80.5128 43.9078 79.2366 42.6808 78.1268C41.2866 76.7951 39.3903 75.7409 37.5499 75.186C35.9325 74.7421 34.1478 74.3537 33.5344 74.3537C32.9209 74.3537 31.415 74.6866 30.1881 75.0195C28.8496 75.3524 26.786 76.7396 25.2244 78.1823C23.6071 79.736 21.8224 82.2884 20.6512 84.6189C19.5915 86.7829 18.1415 90.778 17.3049 93.497C16.5241 96.2713 15.5202 100.877 15.0741 103.762C14.6279 106.703 14.2933 112.585 14.2933 116.968C14.2933 121.296 14.5721 126.79 14.851 129.176C15.1856 131.506 15.9106 135.335 16.5241 137.61C17.0818 139.94 18.3646 143.658 19.3685 145.933C20.3166 148.263 21.4878 150.649 22.659 152.591L24.7225 151.593C25.8937 150.982 28.1245 150.261 29.7419 149.928C31.3593 149.54 33.5344 149.262 34.6498 149.262C36.4902 149.262 36.6018 149.207 36.6018 147.32C36.6018 146.266 36.9922 145.045 37.4383 144.546C37.9403 144.102 38.4422 143.713 38.5538 143.713C38.7211 143.713 39.3346 143.991 39.948 144.268C41.0077 144.823 41.0635 145.378 41.0635 158.973C41.0635 170.459 40.8962 173.455 40.2269 174.787C39.725 175.73 38.8326 176.84 38.1076 177.284C37.4383 177.783 35.9325 178.116 34.7613 178.116C33.6459 178.116 31.917 177.783 31.0246 177.284C30.0765 176.84 28.9611 175.73 28.5149 174.787C28.013 173.899 27.6784 172.456 27.6784 171.624C27.6784 170.791 28.1803 169.293 28.7938 168.295C29.4073 167.296 30.69 166.075 31.6939 165.576C32.6978 165.076 34.2036 164.799 35.0402 164.91C36.3787 165.076 36.6018 164.91 36.6018 163.578C36.6018 162.135 36.4345 162.024 34.0921 162.024C32.6978 162.024 30.8573 162.357 30.0208 162.801C29.1842 163.19 27.7899 164.355 26.9533 165.298C26.1168 166.241 25.1687 168.017 24.8898 169.238C24.4994 170.791 24.4994 172.179 24.9456 173.843C25.2802 175.12 26.1168 176.895 26.7303 177.727C27.3995 178.615 28.9611 179.78 30.1881 180.391C31.415 180.946 33.2555 181.445 34.3709 181.445C35.4306 181.445 37.3826 180.946 38.6653 180.335C40.1711 179.67 41.6212 178.338 44.1309 174.62L44.2982 159.86C44.4097 149.54 44.6886 144.879 45.1348 144.379C45.4694 143.991 46.0829 143.713 46.4733 143.713C46.8637 143.713 47.5329 144.102 48.0349 144.546C48.7041 145.267 48.8714 147.653 48.8714 159.139C48.8714 169.626 48.6484 173.51 48.0349 175.619C47.5887 177.173 46.4175 179.392 45.3579 180.557C44.354 181.778 42.5693 183.332 41.3423 184.053C40.1154 184.774 37.7172 185.496 36.0441 185.718C33.869 185.94 32.1401 185.773 30.1881 185.163C28.6265 184.663 26.5072 183.554 25.4475 182.666C24.3321 181.834 22.7705 179.725 21.9339 178.116C20.707 175.674 20.4281 174.343 20.4281 171.457C20.4281 169.238 20.8185 167.018 21.432 165.631C21.9897 164.41 23.3282 162.579 24.3879 161.525C25.3918 160.471 27.3995 159.139 28.7938 158.529C30.1323 157.918 32.4747 157.419 33.9248 157.363C36.546 157.308 36.6018 157.308 36.6018 153.424L33.0882 153.757C31.0246 153.979 28.4034 154.7 26.6745 155.588C25.0571 156.365 22.8263 157.974 21.7109 159.139C20.5954 160.249 18.9781 162.579 18.1973 164.244C17.0818 166.685 16.803 168.184 16.803 171.513C16.803 175.286 17.0261 176.174 18.755 179.559C20.1493 182.333 21.432 183.942 23.4955 185.44C25.0014 186.605 27.5111 187.993 29.0727 188.492C31.0246 189.102 33.0324 189.324 35.7652 189.102C38.3865 188.936 40.5615 188.381 42.4578 187.438C43.9636 186.661 46.4175 184.719 47.9233 183.054C49.3734 181.445 50.935 178.948 51.3811 177.561C52.0504 175.674 52.2177 171.846 52.2177 160.915C52.2177 150.649 52.385 146.432 52.9427 145.378C53.3331 144.657 54.1139 143.991 54.7274 143.991C55.2851 143.991 56.1217 144.657 56.5121 145.378C57.014 146.432 57.1814 150.649 57.1814 160.915C57.1814 171.846 57.4044 175.674 58.0179 177.561C58.4641 178.948 60.0257 181.445 61.5315 183.054C62.9816 184.719 65.4355 186.661 66.9971 187.438C68.8933 188.381 71.0126 188.936 73.6896 189.102C76.4224 189.324 78.4302 189.102 80.3822 188.492C81.888 187.993 84.3977 186.605 85.9593 185.44C87.9671 183.942 89.2498 182.333 90.6999 179.559C92.4288 176.174 92.6519 175.286 92.6519 171.513C92.6519 168.184 92.3172 166.685 91.2018 164.244C90.421 162.579 88.8594 160.249 87.744 159.139C86.5728 157.974 84.3419 156.365 82.7246 155.588C80.9957 154.7 78.3744 153.979 72.8531 153.424V155.366C72.8531 157.308 72.8531 157.308 75.4743 157.363C76.9244 157.419 79.2668 157.918 80.661 158.529C81.9996 159.139 84.0073 160.526 85.0112 161.525C86.0709 162.579 87.3536 164.41 87.9671 165.631C88.5806 167.074 88.971 169.182 89.0267 171.457C89.0267 174.398 88.7479 175.674 87.4651 178.116C86.3497 180.335 85.1227 181.723 83.115 182.999C81.6091 184.053 79.3783 185.107 78.1513 185.44C76.9244 185.773 74.7493 185.884 73.4108 185.718C72.0165 185.607 69.8972 184.996 68.6702 184.386C67.4433 183.776 65.547 182.277 64.4316 181.112C63.372 179.947 62.0335 177.838 61.4757 176.451C60.6392 174.287 60.5834 172.123 60.6949 159.305C60.8065 146.099 60.918 144.601 61.8104 144.046C62.5354 143.602 63.0373 143.602 63.7624 144.046C64.6547 144.601 64.7662 146.155 65.0451 159.583C65.2682 173.399 65.3797 174.676 66.4394 176.451C67.1086 177.561 68.4471 179.004 69.5068 179.67C70.5664 180.391 72.2954 181.112 73.4108 181.279C74.4704 181.445 76.3109 181.334 77.4263 181.001C78.5975 180.613 80.438 179.559 81.4976 178.56C82.613 177.561 83.7842 175.896 84.1189 174.787C84.3977 173.732 84.6208 171.735 84.5093 170.348C84.3419 168.683 83.7285 167.074 82.7246 165.742C81.888 164.632 80.4937 163.356 79.6572 162.968C78.8206 162.524 77.3148 162.024 76.3109 161.858C75.307 161.636 74.1358 161.636 73.6896 161.747C73.1877 161.913 72.8531 162.69 72.8531 163.578C72.8531 164.965 73.0204 165.076 74.6377 164.91C75.7532 164.854 77.1475 165.187 78.2629 165.909C79.2668 166.519 80.4937 167.962 80.9957 169.127C81.7207 170.791 81.7765 171.624 81.2745 173.288C80.9399 174.398 79.8802 176.007 78.9879 176.729C77.7052 177.783 76.6455 178.116 74.8051 178.116C72.7415 178.116 71.9607 177.838 70.3991 176.34C68.8375 174.842 68.4471 173.954 68.1125 171.457C67.8894 169.793 67.8337 163.245 67.8894 156.92C68.0567 146.821 68.2241 145.323 69.0606 144.435C69.8414 143.658 70.2876 143.602 71.0126 144.046C71.5703 144.379 72.2396 145.711 72.5742 146.987C73.0762 149.207 73.1877 149.318 75.3628 149.262C76.5897 149.262 79.2668 149.762 81.3303 150.372C83.8586 151.112 86.2567 152.37 88.5248 154.145C90.5883 155.699 92.7076 158.029 93.823 159.805C94.8269 161.525 96.1097 164.521 96.6116 166.463C97.2251 169.016 97.3924 171.18 97.1693 173.677C96.9462 175.952 96.2212 178.56 95.1616 180.779C94.2134 182.666 92.2615 185.496 90.8114 187.049C89.194 188.77 86.7401 190.545 84.565 191.655C81.163 193.264 80.5495 193.375 74.8051 193.375C69.2279 193.375 68.3356 193.264 65.6028 191.877C63.8739 191.1 61.5315 189.546 60.3045 188.548C59.0776 187.493 57.2929 185.496 54.7274 181.501L52.7754 184.386C51.66 185.94 49.4292 188.27 47.756 189.491C46.0271 190.712 43.1828 192.21 41.3423 192.765C38.8326 193.541 36.7691 193.763 33.1997 193.597C29.2957 193.43 27.8457 193.098 24.834 191.655C22.5474 190.49 20.1493 188.714 18.1415 186.661C16.1895 184.552 14.5721 182.222 13.7356 180.058C12.6201 177.395 12.3413 175.785 12.3413 171.457C12.3413 166.852 12.5644 165.798 13.9029 162.857C14.7395 161.026 16.2453 158.529 18.8665 155.088L16.3568 149.817C14.9068 146.932 13.1779 142.326 12.3971 139.552C11.672 136.833 10.7239 132.061 10.3893 129.009C9.88735 125.347 9.77581 120.02 9.9989 113.195C10.222 105.704 10.6124 101.598 11.4489 97.936C12.0624 95.2171 13.1221 91.3329 13.7913 89.3354C14.4606 87.3933 15.6876 84.397 16.5241 82.6768C17.3607 81.0122 18.8665 78.5707 19.8146 77.2945C20.7627 75.9628 22.4359 74.2427 23.6071 73.4104C24.7225 72.5781 26.8976 71.4128 28.4592 70.9134C30.5785 70.1366 32.2516 69.9701 34.9286 70.1921V70.1921ZM36.0441 92.1098C44.2424 92.3317 46.6406 92.2207 46.6406 91.9988C46.6406 91.7768 45.7483 90.8335 44.6886 89.8902C42.9597 88.4476 42.2904 88.2256 39.3903 88.2256H36.0441V92.1098ZM32.2516 171.846C32.3632 172.345 32.8651 173.011 33.367 173.344C34.0921 173.788 34.594 173.788 35.319 173.344C35.8767 173.011 36.3229 172.29 36.3229 171.735C36.3787 171.18 35.9883 170.403 35.4863 169.959C35.0402 169.571 34.4825 169.238 34.2594 169.238C34.0363 169.238 33.4786 169.626 32.9766 170.07C32.5305 170.57 32.1958 171.346 32.2516 171.846ZM72.9646 172.012C73.0762 173.177 73.4108 173.399 74.8051 173.399C76.1436 173.399 76.4782 173.177 76.6455 172.012C76.7013 171.291 76.4782 170.292 76.0878 169.904C75.6416 169.515 75.0839 169.238 74.6935 169.238C74.3589 169.238 73.8012 169.571 73.4665 169.959C73.0761 170.348 72.8531 171.291 72.9646 172.012V172.012ZM71.1799 70.747C78.6533 70.8579 81.163 71.1354 84.565 72.1341C86.8516 72.8 90.1979 74.1317 92.0384 75.1305C93.8788 76.0738 96.6116 78.0159 98.1174 79.3476C100.348 81.4006 100.794 82.122 100.516 83.1207C100.348 83.7866 99.679 84.5079 99.0655 84.6189C98.2847 84.8409 96.9462 84.1195 94.8827 82.3994C93.1538 81.0677 90.8672 79.4585 89.696 78.8482C88.5806 78.2933 85.8478 77.239 83.7285 76.5177C80.2149 75.4079 78.709 75.2415 68.9491 75.186C62.9258 75.186 57.7391 74.964 57.3487 74.7421C56.9583 74.5756 56.6794 73.8543 56.6794 73.2439C56.6794 72.6335 56.9583 71.9677 57.3487 71.7457C57.7391 71.5238 58.9103 71.1909 60.0257 70.9689C61.0853 70.747 66.1048 70.636 71.1799 70.747V70.747ZM108.714 71.9122C109.383 72.1342 111.558 73.2439 113.566 74.4092C115.518 75.5744 118.864 78.0159 120.928 79.736C122.991 81.5116 126.059 84.7299 127.788 86.8384C129.461 89.0024 131.692 92.3872 132.751 94.3293C133.811 96.3268 135.205 99.4341 135.875 101.265C136.488 103.096 137.38 106.315 137.827 108.368C138.273 110.421 138.663 114.971 138.663 118.466C138.663 122.129 138.273 126.734 137.771 129.176C137.269 131.506 136.098 135.335 135.15 137.61C134.201 139.94 132.584 143.214 129.74 148.152H126.951C124.888 148.152 124.218 147.986 124.497 147.487C124.72 147.098 125.445 146.044 126.17 145.101C126.84 144.213 128.401 141.327 129.684 138.72C130.911 136.167 132.361 132.505 132.863 130.674C133.365 128.787 133.867 124.293 134.034 120.131C134.257 114.083 134.09 112.141 133.086 107.924C132.473 105.205 130.799 100.71 129.461 97.936C128.067 95.2171 125.613 91.3329 123.995 89.3354C122.378 87.3933 119.701 84.6189 118.139 83.2317C116.522 81.9 113.51 79.736 111.447 78.4598C107.822 76.2957 107.71 76.1293 107.599 73.8543C107.487 71.6348 107.543 71.5238 108.714 71.9122V71.9122ZM70.0645 79.625C74.7493 79.736 78.8206 80.1244 80.9399 80.7348C82.7803 81.1787 85.9035 82.3994 87.9113 83.3427C90.1979 84.4524 92.7634 86.339 98.1732 91.8323L93.7115 91.9988C89.696 92.1098 89.1383 91.9988 87.9113 90.8335C87.1305 90.1122 85.9593 89.2244 85.2343 88.8915C84.565 88.503 82.7246 88.2256 78.4302 88.2256V92.6646L88.7479 92.9421L87.019 94.6067C86.0708 95.55 84.2304 96.6043 82.8361 96.9927C81.2745 97.4921 78.0398 97.6585 67.6106 97.3811L66.9413 94.3293C66.5509 92.6646 65.6586 89.9457 64.8778 88.2256C64.1528 86.561 62.5912 84.0085 59.468 79.9024L60.9738 79.6805C61.8104 79.5695 65.8817 79.514 70.0645 79.625V79.625ZM107.822 81.5671C108.045 81.5671 110.108 82.8433 112.395 84.4524C114.681 86.1171 118.028 89.1689 119.868 91.2774C121.653 93.4415 124.107 97.1591 125.334 99.6006C126.505 102.042 128.011 106.037 128.624 108.479C129.405 111.53 129.74 114.749 129.74 118.744C129.74 122.795 129.405 125.957 128.624 129.009C127.955 131.451 126.617 135.224 125.557 137.332C124.497 139.496 122.378 142.715 118.251 147.875L111.503 148.208L114.849 144.712C116.633 142.826 119.032 139.718 120.091 137.887C121.151 136.056 122.713 132.727 123.493 130.396C124.776 126.734 124.943 125.402 124.999 118.744C124.999 112.363 124.776 110.698 123.661 107.369C122.991 105.26 121.486 101.876 120.37 99.8781C119.255 97.936 116.689 94.6067 114.681 92.4982C112.674 90.3896 110.22 88.2256 109.216 87.6152C107.599 86.6719 107.431 86.339 107.431 84.064C107.431 82.7323 107.599 81.5671 107.822 81.5671V81.5671ZM111.781 95.8274C113.901 98.047 116.076 101.21 117.191 103.485C118.251 105.649 119.478 108.867 119.98 110.698C120.426 112.529 120.816 116.025 120.816 118.466C120.761 120.908 120.426 124.459 119.98 126.401C119.478 128.288 118.251 131.617 117.191 133.726C116.02 136.001 113.789 139.108 111.726 141.272C109.829 143.27 108.045 144.879 107.822 144.879C107.599 144.879 107.431 143.713 107.431 142.326C107.431 140.273 107.822 139.385 109.718 136.944C111.001 135.335 112.618 132.838 113.343 131.395C114.068 129.952 115.016 127.289 115.518 125.569C115.964 123.793 116.355 120.741 116.355 118.744C116.299 116.802 115.964 113.584 115.518 111.697C115.016 109.755 114.124 107.147 113.51 105.871C112.841 104.539 111.224 102.042 109.885 100.322C108.045 97.936 107.375 96.5488 107.32 94.9951C107.264 93.8299 107.431 92.6646 107.766 92.4427C108.045 92.2207 109.829 93.7189 111.781 95.8274V95.8274ZM21.7109 100.877L24.109 101.21C25.4475 101.376 27.288 101.931 28.2361 102.375C29.1284 102.874 30.8016 104.04 31.917 105.038C33.0324 106.037 34.4267 107.813 35.0402 109.034C35.6537 110.254 36.3229 112.64 36.4345 114.305C36.6575 116.413 36.4345 118.3 35.7094 120.409C35.0402 122.517 33.9248 124.293 32.1401 126.013C30.5785 127.622 28.5707 128.898 26.8418 129.509C25.2802 130.008 23.4955 130.396 21.5435 130.396L21.7109 100.877ZM87.3536 101.099C88.6921 101.043 90.9787 101.432 92.373 101.876C93.7115 102.32 95.8308 103.54 97.0578 104.539C98.229 105.482 99.8463 107.591 100.627 109.089C101.798 111.309 102.077 112.64 102.077 115.748C102.077 118.855 101.798 120.187 100.627 122.406C99.8463 123.96 98.229 126.013 97.0578 127.012C95.8308 128.01 93.6 129.231 92.0941 129.73C90.2537 130.285 88.2459 130.507 86.2382 130.341C84.5093 130.174 82.1669 129.509 80.9399 128.898C79.7129 128.288 77.8725 126.956 76.9244 125.902C75.9205 124.903 74.6377 122.961 73.9685 121.574C73.2435 119.965 72.8531 117.912 72.8531 115.748C72.8531 113.584 73.2435 111.53 73.9685 109.921C74.6377 108.534 75.9205 106.592 76.9244 105.593C77.8725 104.539 79.3783 103.318 80.2706 102.874C81.1072 102.375 82.5015 101.82 83.3381 101.543C84.1189 101.321 85.9593 101.099 87.3536 101.099V101.099ZM108.156 106.148C108.491 106.315 109.383 107.868 110.164 109.699C110.889 111.586 111.614 114.638 111.726 116.857C111.893 119.077 111.726 122.073 111.335 123.793C110.945 125.458 110.108 127.788 109.551 128.954C108.993 130.063 108.268 131.007 107.989 131.007C107.599 131.007 107.431 126.512 107.487 118.466C107.543 109.422 107.71 105.982 108.156 106.148V106.148ZM49.9311 122.684C50.0984 122.684 51.3254 123.405 55.0063 126.013L57.516 124.348C58.8545 123.46 60.1372 122.684 60.3045 122.684C60.4161 122.684 62.3123 123.96 64.4874 125.458C66.6067 127.012 68.2241 128.51 68.1125 128.787C67.8894 129.12 62.9816 129.342 55.1178 129.342C48.1464 129.342 42.2347 129.176 42.0116 128.954C41.7885 128.732 43.4059 127.178 45.6367 125.624C47.8118 124.015 49.7638 122.684 49.9311 122.684V122.684ZM65.8817 133.837L63.9297 135.501C62.8142 136.389 60.5834 137.554 58.9103 138.054C56.4563 138.72 55.1736 138.83 52.7754 138.387C50.9907 138.054 48.5368 137.11 47.031 136.112C45.5809 135.113 44.4097 134.225 44.4097 134.059C44.4097 133.892 49.2061 133.781 65.8817 133.837V133.837Z" fill="black"/>
</svg>
