<svg width="289" height="152" viewBox="0 0 289 152" fill="none" xmlns="http://www.w3.org/2000/svg">
<g clip-path="url(#clip0_8_2)">
<rect width="289" height="152" fill="white"/>
<path d="M9 164V-10H284.029V164H9Z" fill="white"/>
<path d="M131.278 7.14978C132.069 6.84181 133.457 6.45686 134.364 6.28363C135.54 6.0719 136.794 6.01416 138.8 6.0719C140.458 6.1104 142.098 6.26438 142.85 6.45686C143.544 6.63009 144.701 7.05354 145.454 7.41925C146.206 7.78496 147.363 8.49712 148.057 9.01682C148.752 9.53651 149.735 10.4989 150.275 11.1341C150.796 11.7692 151.568 12.9241 151.953 13.7133C152.339 14.4832 152.802 15.6765 152.995 16.3695C153.226 17.1971 153.342 18.352 153.342 19.7378C153.342 21.1044 153.226 22.3555 153.014 23.2602C152.821 24.0493 152.59 24.646 152.435 24.646C152.3 24.646 152.05 24.0686 151.857 23.2602C151.664 22.4903 151.182 21.1622 150.757 20.3153C150.352 19.4684 149.62 18.2942 149.176 17.7168C148.713 17.1394 147.729 16.254 146.997 15.7535C146.244 15.2531 145.126 14.6564 144.489 14.4254C143.679 14.1367 142.696 13.9827 141.211 13.925C139.687 13.848 138.626 13.9058 137.45 14.1367C136.35 14.3485 135.154 14.7719 133.824 15.4071C132.396 16.1192 131.509 16.6967 130.584 17.5821C129.889 18.2365 128.944 19.3336 128.501 20.0266C128.038 20.7195 127.498 21.7204 127.266 22.24C127.054 22.779 126.726 23.7221 126.572 24.3573C126.398 25.0117 126.263 26.3013 126.263 27.3407C126.263 28.4956 126.398 29.6889 126.63 30.6128C126.823 31.402 127.228 32.5376 127.517 33.115C127.806 33.6925 128.308 34.5394 128.597 35.0013C128.906 35.444 129.156 35.8867 129.156 36.0022C129.156 36.1177 128.925 36.1562 128.616 36.0792C128.327 36.0215 127.575 35.7327 126.938 35.444C126.302 35.1361 125.338 34.5586 124.817 34.1352C124.277 33.7117 123.428 32.8071 122.907 32.1334C122.406 31.4597 121.673 30.2856 121.307 29.5542C120.921 28.8228 120.458 27.5524 120.246 26.7633C119.976 25.7816 119.86 24.646 119.86 23.2024C119.841 21.8166 119.957 20.6232 120.169 19.7378C120.342 19.0064 120.728 17.8323 120.998 17.1394C121.287 16.4465 121.866 15.2916 122.29 14.5409C122.753 13.771 123.852 12.4237 124.913 11.3458C126.167 10.0947 127.228 9.20929 128.288 8.59336C129.137 8.11217 130.487 7.45774 131.278 7.14978Z" fill="#03045E"/>
<path d="M148.829 23.4911C149.06 22.7982 149.311 22.1631 149.369 22.0476C149.427 21.9321 149.562 22.1053 149.639 22.4325C149.735 22.7597 149.928 23.6644 150.082 24.4535C150.237 25.2427 150.352 26.5708 150.372 27.3985C150.372 28.2069 150.256 29.5157 150.102 30.2856C149.947 31.0363 149.562 32.3644 149.234 33.2113C148.906 34.0582 148.192 35.444 147.633 36.2909C147.074 37.1378 146.051 38.4274 145.357 39.1589C144.663 39.8903 143.448 41.0259 142.657 41.6803C141.866 42.3347 140.555 43.2971 139.764 43.8361C138.973 44.3558 137.623 45.1834 136.775 45.6646C135.926 46.1458 133.322 47.5124 130.989 48.7058C128.655 49.8991 125.781 51.4389 124.624 52.1319C123.467 52.8248 121.905 53.8449 121.152 54.4031C120.4 54.942 119.243 56.0007 118.549 56.7128C117.816 57.4827 117.025 58.5606 116.659 59.292C116.331 59.985 115.964 61.0243 115.848 61.6018C115.733 62.1792 115.656 63.2186 115.656 63.9115C115.656 64.6044 115.791 65.7593 115.945 66.51C116.099 67.2606 116.562 68.5502 116.986 69.3971C117.488 70.4365 118.105 71.3027 118.857 72.0533C119.552 72.727 120.497 73.4392 121.249 73.7856C122.406 74.3631 122.657 74.4016 125.01 74.4785C126.437 74.517 128.096 74.44 128.867 74.3053C129.619 74.1898 130.95 73.8626 131.856 73.5931C132.859 73.3044 133.689 73.1697 133.978 73.2467C134.248 73.3044 134.653 73.5546 134.904 73.7856C135.135 74.0166 135.425 74.6325 135.54 75.1715C135.714 75.9414 135.656 77.5967 135.251 83.2555C134.981 87.1821 134.749 90.8777 134.749 92.5907H129.542C125.511 92.5907 124.335 92.533 124.335 92.3597C124.335 92.225 125.203 90.7237 126.244 89.0299C127.305 87.3361 128.867 84.6991 129.754 83.1593C130.622 81.6195 131.721 79.5792 132.165 78.6361C132.628 77.6929 133.052 76.6343 133.129 76.3263C133.187 76.0184 133.149 75.5564 133.033 75.3254C132.917 75.0752 132.686 74.8828 132.532 74.8828C132.377 74.8828 131.394 75.3062 130.352 75.8259C129.33 76.3456 127.613 77.0385 126.553 77.4042C124.778 77.9816 124.431 78.0394 122.117 78.0394C120.323 78.0394 119.224 77.9431 118.259 77.6929C117.507 77.5004 116.253 77.0385 115.463 76.6535C114.672 76.2493 113.495 75.5564 112.878 75.0752C112.242 74.594 111.258 73.6124 110.68 72.8617C110.12 72.1111 109.387 70.9947 109.098 70.3595C108.79 69.7243 108.365 68.5502 108.153 67.7611C107.941 66.9719 107.671 65.4898 107.555 64.4889C107.439 63.3148 107.439 62.0252 107.555 60.8704C107.671 59.908 107.999 58.2912 108.327 57.3288C108.635 56.3471 109.33 54.8073 109.87 53.9027C110.41 52.998 111.432 51.5929 112.145 50.7845C112.859 49.9569 114.132 48.725 114.981 48.0321C115.829 47.3199 117.256 46.2613 118.163 45.6646C119.069 45.0679 122.406 43.2586 125.588 41.6226C128.771 39.9865 132.281 38.1195 133.399 37.4843C134.518 36.8491 136.64 35.521 138.125 34.5586C139.61 33.577 141.481 32.2681 142.271 31.633C143.062 30.9978 144.451 29.7082 145.357 28.765C146.264 27.8219 147.305 26.5323 147.71 25.8971C148.096 25.2619 148.597 24.1841 148.829 23.4911Z" fill="#03045E"/>
<path d="M156.158 34.2122C156.949 33.8272 158.029 33.4423 158.569 33.346C159.089 33.2305 160.054 33.1535 160.69 33.1343C161.327 33.1343 162.407 33.2305 163.101 33.3845C163.795 33.5385 165.01 33.9235 165.801 34.2507C166.592 34.5779 167.846 35.3093 168.598 35.8675C169.331 36.4064 170.391 37.4265 170.951 38.1195C171.529 38.8124 172.339 40.0635 172.783 40.9104C173.227 41.7573 173.786 43.0469 174.037 43.7976C174.287 44.5482 174.615 45.8763 174.769 46.781C174.943 47.6856 175.059 49.5527 175.059 50.9193C175.059 52.2858 174.924 54.1529 174.769 55.0575C174.615 55.9622 174.268 57.3865 173.979 58.2334C173.709 59.0803 173.207 60.3699 172.86 61.1206C172.513 61.8712 171.896 62.9876 171.471 63.6228C171.066 64.258 170.141 65.3743 169.446 66.125C168.752 66.8564 167.537 67.915 166.746 68.454C165.955 68.9929 164.625 69.7821 163.776 70.2055C162.927 70.629 161.577 71.2064 160.787 71.4759C159.996 71.7454 158.646 72.1111 157.797 72.2843C156.949 72.4575 155.136 72.6885 151.317 73.0542L151.432 73.5354C151.49 73.8049 152.108 75.8836 152.783 78.1549C153.458 80.4261 154.518 83.7175 155.116 85.469C155.714 87.2206 156.543 89.4148 156.948 90.3772C157.354 91.3396 157.701 92.225 157.701 92.3597C157.701 92.533 156.543 92.5907 147.382 92.5907L147.267 87.644C147.17 84.1987 147.016 81.7542 146.727 79.6947C146.495 78.0586 146.09 75.6334 145.82 74.3053C145.55 72.9772 145.106 71.1102 144.836 70.167C144.566 69.2239 144.084 67.7803 143.776 66.9911C143.467 66.202 142.831 64.8162 142.368 63.9115C141.905 63.0069 141.211 61.929 140.844 61.5055C140.362 60.9473 140.169 60.8319 140.15 61.0628C140.15 61.2553 140.343 61.775 140.555 62.2177C140.786 62.6796 141.23 63.6998 141.538 64.4889C141.847 65.2781 142.348 66.9719 142.657 68.2423C142.985 69.5126 143.236 70.706 143.236 70.8792C143.236 71.0717 143.081 71.2257 142.888 71.2257C142.715 71.2257 141.905 70.9177 141.114 70.5327C140.323 70.1478 139.147 69.4741 138.51 69.0122C137.874 68.5695 136.832 67.6456 136.196 66.9719C135.56 66.2982 134.749 65.1819 134.402 64.4889C134.074 63.796 133.689 62.7566 133.592 62.1792C133.477 61.6018 133.438 60.6779 133.515 60.1582C133.573 59.6193 133.862 58.6376 134.152 57.9639C134.518 57.0785 134.904 56.5204 135.521 55.9814C136.1 55.5002 136.794 55.1345 137.546 54.942C138.337 54.7303 139.05 54.6533 139.803 54.7496C140.42 54.8073 141.423 55.0575 142.021 55.2885C142.831 55.5772 143.448 56.0199 144.296 56.8668C144.933 57.5212 145.781 58.5991 146.187 59.292C146.572 59.985 147.286 61.4478 147.749 62.5642C148.212 63.6805 148.713 64.9701 149.215 66.3175L150.603 66.4522C151.375 66.5292 152.744 66.4907 153.65 66.3945C154.557 66.2982 155.811 66.0673 156.447 65.9133C157.084 65.74 158.202 65.3166 158.954 64.9509C159.706 64.5852 160.902 63.8345 161.654 63.2763C162.407 62.6989 163.429 61.6788 163.969 60.9858C164.49 60.2737 165.203 59.1573 165.55 58.4836C165.878 57.8292 166.36 56.5781 166.611 55.7312C166.978 54.4416 167.035 53.7679 167.035 51.5929C167.016 49.5719 166.92 48.648 166.592 47.4546C166.36 46.6077 165.84 45.2219 165.415 44.375C164.991 43.5281 164.239 42.354 163.718 41.7573C163.217 41.1799 162.426 40.3907 161.944 40.0058C161.462 39.64 160.69 39.1396 160.208 38.8894C159.726 38.6584 158.742 38.3312 157.99 38.1772C157.141 38.004 156.273 37.9462 155.676 38.0425C155.136 38.1002 154.268 38.3312 153.747 38.5237C153.207 38.7161 152.339 39.1396 151.818 39.4668C151.278 39.794 150.815 40.0058 150.757 39.948C150.7 39.8903 150.873 39.4283 151.143 38.9279C151.394 38.4274 152.3 37.3303 153.168 36.4642C154.345 35.2708 155.058 34.7319 156.158 34.2122Z" fill="#03045E"/>
<path d="M219.515 126.91C219.843 126.736 220.479 126.544 220.961 126.486C221.443 126.409 222.215 126.39 222.697 126.428C223.179 126.467 224.047 126.736 224.606 127.006C225.243 127.314 225.918 127.853 226.304 128.353C226.651 128.796 226.94 129.277 226.94 129.412C226.94 129.527 226.361 129.989 225.648 130.413C224.934 130.836 224.317 131.202 224.259 131.24C224.201 131.279 223.816 130.99 223.411 130.624C222.793 130.028 222.581 129.931 221.906 129.989C221.385 130.008 221.019 130.143 220.884 130.374C220.73 130.605 220.73 130.798 220.884 131.048C221 131.221 221.906 131.683 222.909 132.049C223.912 132.434 225.069 132.953 225.474 133.204C225.899 133.473 226.439 133.993 226.689 134.358C226.94 134.724 227.229 135.379 227.326 135.802C227.461 136.322 227.441 136.899 227.287 137.631C227.152 138.343 226.863 138.901 226.458 139.363C226.111 139.729 225.436 140.229 224.954 140.479C224.452 140.71 223.546 140.96 222.928 141.018C222.273 141.095 221.405 141.057 220.768 140.903C220.19 140.768 219.457 140.537 219.129 140.383C218.801 140.21 218.261 139.825 217.914 139.478C217.547 139.151 217.142 138.651 216.988 138.362C216.834 138.054 216.718 137.727 216.718 137.631C216.718 137.534 217.335 137.072 219.418 135.802L220.151 136.591C220.749 137.265 221.019 137.419 221.829 137.534C222.62 137.65 222.871 137.592 223.276 137.284C223.546 137.092 223.777 136.764 223.796 136.591C223.835 136.418 223.738 136.148 223.603 135.994C223.488 135.821 222.678 135.456 221.829 135.186C220.98 134.917 219.862 134.474 219.36 134.185C218.762 133.877 218.203 133.358 217.856 132.819C217.374 132.087 217.297 131.76 217.297 130.759C217.297 130.085 217.393 129.315 217.509 129.027C217.605 128.719 217.991 128.199 218.319 127.853C218.666 127.487 219.187 127.063 219.515 126.91Z" fill="#03045E"/>
<path d="M69.0203 127.391C69.4832 127.16 70.2739 126.871 70.814 126.717C71.3926 126.582 72.3183 126.525 73.1284 126.582C73.9191 126.64 74.8642 126.852 75.4428 127.102C75.9635 127.352 76.735 127.795 77.14 128.103C77.545 128.43 78.1236 129.027 78.4322 129.45C78.7794 129.912 78.9337 130.297 78.8372 130.413C78.7408 130.509 78.0465 130.913 75.9249 131.952L75.3078 131.298C74.9606 130.952 74.4399 130.528 74.1313 130.393C73.842 130.239 73.2441 130.105 72.7812 130.105C72.3376 130.085 71.6626 130.162 71.2961 130.278C70.9297 130.393 70.2932 130.836 69.8882 131.26C69.5025 131.702 69.0974 132.26 68.9817 132.53C68.866 132.799 68.7889 133.377 68.7889 133.839C68.7889 134.32 68.9624 134.955 69.2325 135.398C69.4639 135.821 69.9653 136.399 70.3318 136.707C70.8332 137.13 71.2768 137.303 72.0676 137.38C72.7426 137.438 73.3984 137.38 73.8806 137.226C74.2856 137.072 74.9413 136.61 76.0214 135.456L77.3715 136.187C78.1236 136.591 78.7987 136.976 78.9144 137.072C79.0301 137.169 78.8372 137.573 78.4129 138.15C78.0272 138.651 77.3715 139.305 76.9664 139.594C76.5421 139.883 75.7706 140.306 75.2499 140.556C74.4784 140.903 73.9384 140.98 72.5498 140.999C70.9875 140.999 70.679 140.941 69.5025 140.364C68.7889 140.037 67.8438 139.382 67.3809 138.939C66.918 138.477 66.3009 137.592 65.9923 136.957C65.4523 135.898 65.4137 135.629 65.4137 133.781C65.4137 132.01 65.4715 131.625 65.9151 130.701C66.1852 130.124 66.8216 129.238 67.3038 128.738C67.8052 128.218 68.5767 127.622 69.0203 127.391Z" fill="#03045E"/>
<path d="M138.896 127.371C139.32 127.16 140.092 126.871 140.632 126.717C141.191 126.582 142.136 126.505 142.888 126.563C143.621 126.621 144.566 126.794 145.01 126.987C145.473 127.16 146.225 127.583 146.707 127.91C147.189 128.257 147.864 128.911 148.192 129.373C148.578 129.893 148.752 130.297 148.655 130.413C148.559 130.509 147.864 130.913 145.743 131.952L145.126 131.298C144.779 130.952 144.258 130.528 143.949 130.393C143.66 130.239 143.062 130.105 142.599 130.105C142.156 130.085 141.481 130.162 141.114 130.278C140.748 130.393 140.111 130.836 139.706 131.26C139.32 131.702 138.896 132.26 138.8 132.53C138.703 132.799 138.607 133.377 138.607 133.839C138.607 134.32 138.78 134.955 139.05 135.398C139.282 135.821 139.783 136.399 140.15 136.707C140.651 137.13 141.095 137.303 141.886 137.38C142.561 137.438 143.216 137.38 143.699 137.226C144.104 137.072 144.759 136.61 145.839 135.456L147.189 136.187C147.942 136.591 148.636 136.976 148.732 137.072C148.848 137.169 148.655 137.573 148.231 138.15C147.845 138.651 147.189 139.305 146.784 139.594C146.36 139.883 145.646 140.287 145.164 140.498C144.682 140.71 143.776 140.941 143.139 141.018C142.426 141.095 141.577 141.057 140.921 140.903C140.343 140.768 139.455 140.46 138.935 140.21C138.433 139.96 137.623 139.344 137.141 138.843C136.659 138.323 136.022 137.438 135.752 136.861C135.29 135.917 135.232 135.571 135.232 133.781C135.232 132.01 135.289 131.625 135.733 130.701C136.003 130.124 136.659 129.219 137.18 128.7C137.7 128.18 138.472 127.583 138.896 127.371Z" fill="#03045E"/>
<path d="M185.088 127.275C185.57 127.044 186.341 126.775 186.824 126.679C187.306 126.563 188.289 126.525 189.042 126.582C190.006 126.64 190.72 126.833 191.549 127.217C192.262 127.564 193.092 128.18 193.709 128.854C194.268 129.45 194.731 130.047 194.731 130.182C194.731 130.297 194.114 130.74 193.381 131.144C192.629 131.529 191.973 131.856 191.877 131.856C191.8 131.856 191.395 131.529 190.97 131.125C190.43 130.605 189.929 130.336 189.234 130.182C188.694 130.066 188 130.047 187.692 130.124C187.383 130.201 186.824 130.393 186.476 130.567C186.149 130.759 185.589 131.298 185.281 131.818C184.818 132.53 184.702 132.934 184.702 133.781C184.702 134.609 184.818 135.032 185.242 135.706C185.589 136.283 186.071 136.726 186.631 136.995C187.171 137.265 187.865 137.438 188.405 137.438C188.926 137.438 189.62 137.303 189.948 137.13C190.295 136.976 190.855 136.514 191.8 135.417L193.208 136.206C193.998 136.63 194.654 137.13 194.673 137.303C194.712 137.496 194.21 138.169 193.516 138.843C192.648 139.748 192.012 140.19 191.163 140.518C190.295 140.864 189.62 140.98 188.463 140.98C187.479 140.999 186.573 140.864 185.956 140.652C185.416 140.479 184.548 139.998 184.027 139.594C183.487 139.19 182.735 138.4 182.349 137.823C181.886 137.149 181.501 136.264 181.288 135.417C181.038 134.339 181.018 133.819 181.173 132.819C181.269 132.126 181.558 131.144 181.809 130.605C182.06 130.085 182.716 129.2 183.256 128.68C183.776 128.141 184.606 127.506 185.088 127.275Z" fill="#03045E"/>
<path d="M263.971 127.294C264.453 127.044 265.224 126.775 265.706 126.679C266.189 126.563 267.134 126.505 267.828 126.544C268.561 126.582 269.487 126.794 270.046 127.025C270.567 127.256 271.338 127.679 271.762 127.968C272.167 128.257 272.785 128.873 273.132 129.354C273.479 129.835 273.961 130.778 274.193 131.471C274.52 132.453 274.598 133.03 274.54 134.166C274.482 135.263 274.308 135.917 273.865 136.861C273.556 137.554 272.9 138.497 272.437 138.939C271.975 139.401 271.203 139.979 270.721 140.229C270.239 140.479 269.332 140.768 268.696 140.903C267.963 141.057 267.114 141.076 266.381 140.999C265.706 140.903 264.703 140.595 263.971 140.21C263.276 139.863 262.389 139.228 261.984 138.805C261.598 138.362 261.058 137.592 260.788 137.053C260.518 136.533 260.21 135.59 260.094 134.994C259.94 134.166 259.959 133.55 260.113 132.626C260.248 131.933 260.557 130.952 260.846 130.413C261.116 129.893 261.733 129.065 262.215 128.584C262.698 128.103 263.488 127.525 263.971 127.294Z" fill="#03045E"/>
<path d="M17.0618 133.819C17.0426 130.028 17.1004 126.852 17.1969 126.794C17.2933 126.717 18.9519 126.659 20.8999 126.659C23.465 126.659 24.603 126.736 25.0466 126.929C25.3937 127.064 25.9723 127.487 26.3388 127.833C26.7052 128.199 27.1295 128.796 27.2838 129.162C27.4381 129.527 27.5538 130.316 27.5538 130.894C27.5538 131.49 27.4381 132.203 27.2645 132.53C26.9752 133.069 26.9752 133.146 27.4188 133.839C27.6888 134.224 27.9781 134.917 28.0746 135.379C28.171 135.84 28.171 136.591 28.0553 137.149C27.9781 137.688 27.6696 138.439 27.4188 138.843C27.1488 139.228 26.5702 139.786 25.3359 140.614L17.1004 140.71L17.0618 133.819Z" fill="#03045E"/>
<path d="M33.4556 133.819C33.4363 130.028 33.5134 126.852 33.5906 126.775C33.687 126.698 34.4971 126.679 37.0622 126.756L37.1586 137.438L42.4625 137.534L42.5589 140.71H33.4941L33.4556 133.819Z" fill="#03045E"/>
<path d="M49.9843 133.742C51.3151 130.105 52.4337 127.025 52.4916 126.91C52.5494 126.736 53.128 126.659 56.3489 126.64L58.8948 133.531C60.3027 137.323 61.4599 140.479 61.4599 140.575C61.4599 140.652 60.6113 140.691 57.7183 140.614L56.9082 138.497L52.1058 138.381L51.3151 140.614L49.4443 140.672C48.3835 140.691 47.5735 140.633 47.5735 140.537C47.5542 140.441 48.6535 137.38 49.9843 133.742Z" fill="#03045E"/>
<path d="M84.3725 133.819C84.3532 130.028 84.4111 126.852 84.5075 126.794C84.604 126.717 85.4333 126.659 88.0949 126.659L88.172 131.567L92.2222 126.64L94.1895 126.659C95.3081 126.659 96.2146 126.736 96.2724 126.852C96.3303 126.948 95.2888 128.392 93.958 130.028C91.8365 132.665 91.5665 133.05 91.7786 133.358C91.9136 133.55 93.1866 135.225 94.5752 137.072C95.9831 138.92 97.1403 140.479 97.1403 140.575C97.1403 140.652 96.1953 140.71 92.8973 140.71L91.2386 138.554C90.3128 137.361 89.4835 136.283 89.3871 136.187C89.2714 136.071 89.0013 136.225 88.6542 136.668C88.1142 137.303 88.0949 137.457 88.0756 140.71H84.4111L84.3725 133.819Z" fill="#03045E"/>
<path d="M108.037 137.419C108.404 137.034 108.423 136.707 108.481 131.837L108.539 126.659H111.991L111.953 132.203C111.895 136.861 111.837 137.823 111.586 138.304C111.413 138.631 110.969 139.17 110.622 139.536C110.255 139.902 109.58 140.383 109.098 140.595C108.442 140.903 107.844 140.999 106.687 140.999C105.511 140.999 104.932 140.883 104.276 140.575C103.794 140.344 103.119 139.844 102.772 139.478C102.444 139.093 102.174 138.631 102.193 138.458C102.232 138.285 102.811 137.804 104.759 136.707L105.376 137.265C105.858 137.688 106.205 137.823 106.822 137.823C107.42 137.842 107.767 137.727 108.037 137.419Z" fill="#03045E"/>
<path d="M119.86 133.492C121.017 130.316 122.078 127.487 122.194 127.198C122.406 126.659 122.406 126.659 126.167 126.659L128.655 133.454C130.024 137.169 131.181 140.344 131.201 140.479C131.259 140.652 130.815 140.71 127.517 140.71L126.707 138.497L121.924 138.381L121.056 140.71H117.199L117.469 139.998C117.623 139.594 118.684 136.668 119.86 133.492Z" fill="#03045E"/>
<path d="M154.229 140.71V126.659H157.701V128.969C157.701 130.316 157.778 131.317 157.894 131.375C157.99 131.433 158.954 130.393 161.944 126.659H163.969C165.126 126.659 166.033 126.736 166.09 126.852C166.148 126.967 165.107 128.392 163.776 130.028C162.291 131.856 161.423 133.107 161.5 133.261C161.577 133.377 162.831 135.071 164.297 137.015C165.763 138.939 166.958 140.556 166.958 140.614C166.958 140.672 165.975 140.71 162.619 140.691L160.883 138.4C159.919 137.13 159.089 136.11 158.993 136.091C158.916 136.091 158.588 136.456 158.279 136.918C157.739 137.65 157.681 137.862 157.701 140.71H154.229Z" fill="#03045E"/>
<path d="M201.154 133.896C202.427 130.393 203.526 127.333 203.622 127.102C203.777 126.679 203.892 126.659 207.557 126.659L210.103 133.589C211.511 137.4 212.668 140.556 212.668 140.614C212.668 140.672 211.819 140.71 208.907 140.71L208.116 138.497L203.217 138.4L202.504 140.614L200.652 140.672C199.321 140.691 198.801 140.652 198.82 140.498C198.839 140.364 199.9 137.4 201.154 133.896Z" fill="#03045E"/>
<path d="M232.726 140.71V133.685L232.745 126.64L236.294 126.756L236.391 140.71H232.726Z" fill="#03045E"/>
<path d="M242.929 140.729L242.948 133.685V126.659L246.477 126.775L248.387 129.758C249.428 131.394 250.412 132.761 250.566 132.78C250.798 132.819 250.836 132.357 250.836 126.679H254.308V140.729L251.318 140.71L249.1 137.207C247.885 135.302 246.805 133.723 246.69 133.704C246.574 133.704 246.477 135.013 246.4 140.729H242.929Z" fill="#03045E"/>
<path d="M20.7263 131.029C20.707 130.567 20.7649 130.124 20.8613 130.066C20.9578 129.989 21.6135 129.931 22.3464 129.931C23.4072 129.931 23.7351 130.008 24.0436 130.316C24.2558 130.528 24.4294 130.817 24.4294 130.932C24.4294 131.067 24.2751 131.337 24.0822 131.529C23.8315 131.798 23.4458 131.875 20.7649 131.856L20.7263 131.029Z" fill="white"/>
<path d="M265.128 130.759C265.494 130.509 266.111 130.239 266.478 130.143C266.844 130.047 267.288 130.008 267.442 130.028C267.596 130.066 268.04 130.162 268.406 130.239C268.773 130.316 269.409 130.682 269.814 131.067C270.335 131.567 270.644 132.049 270.837 132.761C271.068 133.646 271.068 133.916 270.817 134.84C270.586 135.667 270.354 136.033 269.718 136.572C269.255 136.957 268.58 137.303 268.214 137.38C267.847 137.438 267.153 137.438 266.671 137.38C266.189 137.303 265.533 137.053 265.186 136.822C264.858 136.572 264.376 136.091 264.125 135.725C263.855 135.302 263.643 134.686 263.604 134.089C263.546 133.338 263.643 132.876 263.99 132.164C264.26 131.606 264.742 131.009 265.128 130.759Z" fill="white"/>
<path d="M53.5909 134.416C53.6681 134.108 53.8609 133.55 54.0345 133.146C54.2274 132.742 54.4588 132.434 54.5745 132.472C54.671 132.511 54.9217 132.953 55.1146 133.492C55.2881 134.012 55.4617 134.57 55.4617 134.686C55.481 134.859 55.1531 134.936 54.4781 134.936C53.4559 134.936 53.4559 134.936 53.5909 134.416Z" fill="white"/>
<path d="M123.332 134.84C123.235 134.782 123.37 134.224 123.602 133.589C123.833 132.953 124.122 132.434 124.238 132.434C124.335 132.414 124.624 132.915 124.855 133.531C125.106 134.147 125.299 134.705 125.299 134.782C125.299 134.878 124.894 134.936 124.392 134.936C123.872 134.936 123.409 134.897 123.332 134.84Z" fill="white"/>
<path d="M204.818 134.358C204.895 134.05 205.088 133.473 205.242 133.107C205.397 132.742 205.609 132.434 205.725 132.434C205.821 132.434 206.091 132.915 206.303 133.492C206.515 134.07 206.689 134.647 206.689 134.743C206.689 134.84 206.226 134.936 204.664 134.936L204.818 134.358Z" fill="white"/>
<path d="M20.7649 137.438V135.128H22.4621C23.7929 135.128 24.2172 135.205 24.4872 135.475C24.6801 135.648 24.8344 135.994 24.8151 136.225C24.8151 136.476 24.6415 136.841 24.4294 137.053C24.1015 137.38 23.7929 137.438 20.7649 137.438Z" fill="white"/>
</g>
<defs>
<clipPath id="clip0_8_2">
<rect width="289" height="152" fill="white"/>
</clipPath>
</defs>
</svg>
