<svg width="284" height="123" viewBox="0 0 284 123" fill="none" xmlns="http://www.w3.org/2000/svg">
<g clip-path="url(#clip0_9_9)">
<rect width="284" height="123" fill="#009DD1"/>
<path d="M132.018 4.36884C132.809 4.06087 134.198 3.67592 135.104 3.50269C136.281 3.29096 137.534 3.23321 139.54 3.29095C141.199 3.32945 142.838 3.48343 143.59 3.6759C144.285 3.84913 145.442 4.2726 146.194 4.63831C146.946 5.00401 148.103 5.71618 148.798 6.23587C149.492 6.75556 150.476 7.71794 151.016 8.35312C151.536 8.9883 152.308 10.1432 152.694 10.9323C153.079 11.7022 153.542 12.8956 153.735 13.5885C153.967 14.4162 154.082 15.571 154.082 16.9569C154.082 18.3235 153.967 19.5746 153.754 20.4792C153.562 21.2684 153.33 21.8651 153.176 21.8651C153.041 21.8651 152.79 21.2876 152.597 20.4792C152.404 19.7093 151.922 18.3812 151.498 17.5343C151.093 16.6874 150.36 15.5133 149.916 14.9359C149.453 14.3584 148.47 13.473 147.737 12.9726C146.985 12.4722 145.866 11.8755 145.23 11.6445C144.42 11.3558 143.436 11.2018 141.951 11.144C140.427 11.0671 139.366 11.1248 138.19 11.3558C137.091 11.5675 135.895 11.991 134.564 12.6261C133.137 13.3383 132.25 13.9157 131.324 14.8011C130.63 15.4555 129.685 16.5527 129.241 17.2456C128.778 17.9385 128.238 18.9394 128.007 19.4591C127.794 19.998 127.467 20.9411 127.312 21.5763C127.139 22.2307 127.004 23.5204 127.004 24.5598C127.004 25.7146 127.139 26.908 127.37 27.8319C127.563 28.621 127.968 29.7566 128.257 30.3341C128.547 30.9115 129.048 31.7584 129.337 32.2204C129.646 32.6631 129.897 33.1058 129.897 33.2213C129.897 33.3367 129.665 33.3752 129.357 33.2982C129.067 33.2405 128.315 32.9518 127.679 32.6631C127.042 32.3551 126.078 31.7777 125.557 31.3542C125.017 30.9308 124.169 30.0261 123.648 29.3524C123.146 28.6788 122.413 27.5047 122.047 26.7733C121.661 26.0418 121.198 24.7715 120.986 23.9823C120.716 23.0007 120.601 21.8651 120.601 20.4215C120.581 19.0356 120.697 17.8423 120.909 16.9569C121.083 16.2255 121.468 15.0513 121.738 14.3584C122.028 13.6655 122.606 12.5106 123.031 11.76C123.494 10.9901 124.593 9.64273 125.654 8.56485C126.907 7.31374 127.968 6.42834 129.029 5.81241C129.877 5.33121 131.227 4.6768 132.018 4.36884Z" fill="white"/>
<path d="M149.569 20.7102C149.801 20.0173 150.051 19.3821 150.109 19.2666C150.167 19.1511 150.302 19.3243 150.379 19.6516C150.476 19.9788 150.669 20.8834 150.823 21.6726C150.977 22.4617 151.093 23.7898 151.112 24.6175C151.112 25.4259 150.996 26.7348 150.842 27.5047C150.688 28.2553 150.302 29.5834 149.974 30.4303C149.646 31.2772 148.933 32.6631 148.373 33.51C147.814 34.3569 146.792 35.6465 146.098 36.3779C145.403 37.1093 144.188 38.2449 143.397 38.8994C142.607 39.5538 141.295 40.5161 140.504 41.0551C139.714 41.5748 138.364 42.4024 137.515 42.8836C136.666 43.3648 134.063 44.7314 131.729 45.9248C129.395 47.1181 126.522 48.658 125.364 49.3509C124.207 50.0438 122.645 51.0639 121.893 51.6221C121.141 52.1611 119.983 53.2197 119.289 53.9319C118.556 54.7018 117.765 55.7797 117.399 56.5111C117.071 57.204 116.705 58.2434 116.589 58.8208C116.473 59.3982 116.396 60.4376 116.396 61.1306C116.396 61.8235 116.531 62.9783 116.685 63.729C116.84 64.4797 117.302 65.7692 117.727 66.6161C118.228 67.6555 118.845 68.5217 119.598 69.2723C120.292 69.946 121.237 70.6582 121.989 71.0046C123.146 71.5821 123.397 71.6206 125.75 71.6976C127.177 71.7361 128.836 71.6591 129.607 71.5244C130.36 71.4089 131.69 71.0816 132.597 70.8122C133.6 70.5234 134.429 70.3887 134.718 70.4657C134.988 70.5235 135.393 70.7737 135.644 71.0046C135.876 71.2356 136.165 71.8516 136.281 72.3905C136.454 73.1604 136.396 74.8157 135.991 80.4746C135.721 84.4011 135.49 88.0967 135.49 89.8098H130.282C126.252 89.8098 125.075 89.752 125.075 89.5788C125.075 89.444 125.943 87.9427 126.984 86.2489C128.045 84.5551 129.607 81.9181 130.495 80.3783C131.363 78.8385 132.462 76.7982 132.905 75.8551C133.368 74.912 133.793 73.8533 133.87 73.5453C133.928 73.2374 133.889 72.7754 133.773 72.5445C133.658 72.2942 133.426 72.1018 133.272 72.1018C133.118 72.1018 132.134 72.5252 131.092 73.0449C130.07 73.5646 128.354 74.2575 127.293 74.6232C125.519 75.2007 125.171 75.2584 122.857 75.2584C121.063 75.2584 119.964 75.1622 119 74.912C118.248 74.7195 116.994 74.2575 116.203 73.8726C115.412 73.4684 114.236 72.7754 113.619 72.2943C112.982 71.8131 111.999 70.8314 111.42 70.0807C110.861 69.3301 110.128 68.2137 109.839 67.5786C109.53 66.9434 109.106 65.7693 108.893 64.9801C108.681 64.1909 108.411 62.7089 108.296 61.708C108.18 60.5339 108.18 59.2443 108.296 58.0894C108.411 57.127 108.739 55.5102 109.067 54.5478C109.376 53.5662 110.07 52.0263 110.61 51.1217C111.15 50.217 112.172 48.8119 112.886 48.0035C113.599 47.1759 114.872 45.944 115.721 45.2511C116.57 44.5389 117.997 43.4803 118.903 42.8836C119.81 42.287 123.146 40.4777 126.329 38.8416C129.511 37.2056 133.021 35.3385 134.14 34.7033C135.258 34.0682 137.38 32.7401 138.865 31.7777C140.35 30.796 142.221 29.4872 143.012 28.852C143.802 28.2168 145.191 26.9272 146.098 25.9841C147.004 25.0409 148.046 23.7513 148.451 23.1161C148.836 22.481 149.338 21.4031 149.569 20.7102Z" fill="white"/>
<path d="M156.898 31.4312C157.689 31.0463 158.769 30.6613 159.309 30.5651C159.83 30.4496 160.794 30.3726 161.431 30.3533C162.067 30.3533 163.147 30.4496 163.841 30.6035C164.536 30.7575 165.751 31.1425 166.542 31.4697C167.332 31.7969 168.586 32.5283 169.338 33.0865C170.071 33.6255 171.132 34.6456 171.691 35.3385C172.27 36.0314 173.08 37.2825 173.523 38.1294C173.967 38.9763 174.526 40.2659 174.777 41.0166C175.028 41.7673 175.356 43.0954 175.51 44C175.683 44.9046 175.799 46.7717 175.799 48.1383C175.799 49.5049 175.664 51.3719 175.51 52.2766C175.356 53.1812 175.008 54.6055 174.719 55.4525C174.449 56.2994 173.948 57.5889 173.6 58.3396C173.253 59.0903 172.636 60.2066 172.212 60.8418C171.807 61.477 170.881 62.5934 170.187 63.344C169.492 64.0754 168.277 65.1341 167.487 65.673C166.696 66.212 165.365 67.0011 164.516 67.4246C163.668 67.848 162.318 68.4254 161.527 68.6949C160.736 68.9644 159.386 69.3301 158.538 69.5033C157.689 69.6766 155.876 69.9075 152.057 70.2732L152.173 70.7544C152.231 71.0239 152.848 73.1027 153.523 75.3739C154.198 77.6451 155.259 80.9365 155.857 82.688C156.455 84.4396 157.284 86.6339 157.689 87.5963C158.094 88.5586 158.441 89.444 158.441 89.5788C158.441 89.752 157.284 89.8098 148.123 89.8098L148.007 84.8631C147.911 81.4177 147.756 78.9732 147.467 76.9137C147.235 75.2777 146.83 72.8525 146.56 71.5244C146.29 70.1963 145.847 68.3292 145.577 67.3861C145.307 66.4429 144.825 64.9993 144.516 64.2102C144.207 63.421 143.571 62.0352 143.108 61.1306C142.645 60.2259 141.951 59.148 141.584 58.7246C141.102 58.1664 140.909 58.0509 140.89 58.2819C140.89 58.4743 141.083 58.994 141.295 59.4367C141.527 59.8987 141.97 60.9188 142.279 61.708C142.587 62.4971 143.089 64.1909 143.397 65.4613C143.725 66.7317 143.976 67.925 143.976 68.0982C143.976 68.2907 143.822 68.4447 143.629 68.4447C143.455 68.4447 142.645 68.1367 141.854 67.7518C141.064 67.3668 139.887 66.6931 139.251 66.2312C138.614 65.7885 137.573 64.8646 136.936 64.1909C136.3 63.5173 135.49 62.4009 135.143 61.708C134.815 61.0151 134.429 59.9757 134.333 59.3983C134.217 58.8208 134.178 57.8969 134.255 57.3772C134.313 56.8383 134.603 55.8567 134.892 55.183C135.258 54.2976 135.644 53.7394 136.261 53.2004C136.84 52.7192 137.534 52.3535 138.286 52.1611C139.077 51.9493 139.791 51.8724 140.543 51.9686C141.16 52.0263 142.163 52.2766 142.761 52.5075C143.571 52.7963 144.188 53.2389 145.037 54.0858C145.673 54.7403 146.522 55.8182 146.927 56.5111C147.313 57.204 148.026 58.6668 148.489 59.7832C148.952 60.8996 149.453 62.1892 149.955 63.5365L151.344 63.6713C152.115 63.7483 153.484 63.7097 154.391 63.6135C155.297 63.5173 156.551 63.2863 157.187 63.1323C157.824 62.9591 158.943 62.5356 159.695 62.1699C160.447 61.8042 161.643 61.0535 162.395 60.4954C163.147 59.9179 164.169 58.8978 164.709 58.2049C165.23 57.4927 165.944 56.3763 166.291 55.7027C166.619 55.0482 167.101 53.7971 167.352 52.9502C167.718 51.6606 167.776 50.9869 167.776 48.812C167.757 46.7909 167.66 45.867 167.332 44.6737C167.101 43.8268 166.58 42.4409 166.156 41.594C165.732 40.7471 164.979 39.573 164.459 38.9763C163.957 38.3989 163.166 37.6097 162.684 37.2248C162.202 36.8591 161.431 36.3587 160.948 36.1084C160.466 35.8775 159.483 35.5502 158.73 35.3962C157.882 35.223 157.014 35.1653 156.416 35.2615C155.876 35.3192 155.008 35.5502 154.487 35.7427C153.947 35.9352 153.079 36.3586 152.559 36.6859C152.019 37.0131 151.556 37.2248 151.498 37.1671C151.44 37.1093 151.614 36.6474 151.884 36.1469C152.134 35.6465 153.041 34.5493 153.909 33.6832C155.085 32.4898 155.799 31.9509 156.898 31.4312Z" fill="white"/>
<path d="M220.255 104.129C220.583 103.955 221.219 103.763 221.702 103.705C222.184 103.628 222.955 103.609 223.437 103.647C223.92 103.686 224.787 103.955 225.347 104.225C225.983 104.533 226.658 105.072 227.044 105.572C227.391 106.015 227.68 106.496 227.68 106.631C227.68 106.746 227.102 107.208 226.388 107.632C225.675 108.055 225.057 108.421 225 108.459C224.942 108.498 224.556 108.209 224.151 107.843C223.534 107.247 223.322 107.15 222.647 107.208C222.126 107.227 221.759 107.362 221.624 107.593C221.47 107.824 221.47 108.017 221.624 108.267C221.74 108.44 222.647 108.902 223.65 109.268C224.652 109.653 225.81 110.172 226.215 110.423C226.639 110.692 227.179 111.212 227.43 111.577C227.68 111.943 227.97 112.598 228.066 113.021C228.201 113.541 228.182 114.118 228.028 114.85C227.893 115.562 227.603 116.12 227.198 116.582C226.851 116.948 226.176 117.448 225.694 117.698C225.192 117.929 224.286 118.179 223.669 118.237C223.013 118.314 222.145 118.276 221.509 118.122C220.93 117.987 220.197 117.756 219.869 117.602C219.541 117.429 219.001 117.044 218.654 116.697C218.288 116.37 217.883 115.87 217.729 115.581C217.574 115.273 217.458 114.946 217.458 114.85C217.458 114.753 218.076 114.291 220.159 113.021L220.892 113.81C221.489 114.484 221.759 114.638 222.569 114.753C223.36 114.869 223.611 114.811 224.016 114.503C224.286 114.311 224.517 113.983 224.537 113.81C224.575 113.637 224.479 113.368 224.344 113.214C224.228 113.04 223.418 112.675 222.569 112.405C221.721 112.136 220.602 111.693 220.101 111.404C219.503 111.096 218.944 110.577 218.596 110.038C218.114 109.306 218.037 108.979 218.037 107.978C218.037 107.304 218.134 106.535 218.249 106.246C218.346 105.938 218.731 105.418 219.059 105.072C219.406 104.706 219.927 104.283 220.255 104.129Z" fill="white"/>
<path d="M69.7607 104.61C70.2236 104.379 71.0143 104.09 71.5544 103.936C72.133 103.801 73.0587 103.744 73.8687 103.801C74.6595 103.859 75.6046 104.071 76.1832 104.321C76.7039 104.571 77.4754 105.014 77.8804 105.322C78.2854 105.649 78.864 106.246 79.1726 106.669C79.5198 107.131 79.6741 107.516 79.5776 107.632C79.4812 107.728 78.7869 108.132 76.6653 109.171L76.0482 108.517C75.701 108.171 75.1803 107.747 74.8717 107.612C74.5824 107.458 73.9845 107.324 73.5216 107.324C73.078 107.304 72.403 107.381 72.0365 107.497C71.6701 107.612 71.0336 108.055 70.6286 108.479C70.2429 108.921 69.8378 109.479 69.7221 109.749C69.6064 110.018 69.5293 110.596 69.5293 111.058C69.5293 111.539 69.7028 112.174 69.9728 112.617C70.2043 113.04 70.7057 113.618 71.0722 113.926C71.5736 114.349 72.0172 114.522 72.808 114.599C73.483 114.657 74.1388 114.599 74.6209 114.445C75.026 114.291 75.6817 113.829 76.7618 112.675L78.1118 113.406C78.864 113.81 79.5391 114.195 79.6548 114.291C79.7705 114.388 79.5776 114.792 79.1533 115.369C78.7676 115.87 78.1118 116.524 77.7068 116.813C77.2825 117.102 76.511 117.525 75.9903 117.775C75.2188 118.122 74.6788 118.199 73.2902 118.218C71.7279 118.218 71.4193 118.16 70.2429 117.583C69.5293 117.256 68.5842 116.601 68.1213 116.158C67.6584 115.696 67.0413 114.811 66.7327 114.176C66.1926 113.117 66.1541 112.848 66.1541 111C66.1541 109.229 66.2119 108.844 66.6555 107.92C66.9255 107.343 67.562 106.458 68.0442 105.957C68.5456 105.437 69.3171 104.841 69.7607 104.61Z" fill="white"/>
<path d="M139.637 104.59C140.061 104.379 140.832 104.09 141.372 103.936C141.932 103.801 142.877 103.724 143.629 103.782C144.362 103.84 145.307 104.013 145.75 104.206C146.213 104.379 146.965 104.802 147.448 105.129C147.93 105.476 148.605 106.13 148.933 106.592C149.318 107.112 149.492 107.516 149.396 107.632C149.299 107.728 148.605 108.132 146.483 109.171L145.866 108.517C145.519 108.171 144.998 107.747 144.69 107.612C144.4 107.458 143.802 107.324 143.34 107.324C142.896 107.304 142.221 107.381 141.854 107.497C141.488 107.612 140.852 108.055 140.447 108.479C140.061 108.921 139.637 109.479 139.54 109.749C139.444 110.018 139.347 110.596 139.347 111.058C139.347 111.539 139.521 112.174 139.791 112.617C140.022 113.04 140.524 113.618 140.89 113.926C141.392 114.349 141.835 114.522 142.626 114.599C143.301 114.657 143.957 114.599 144.439 114.445C144.844 114.291 145.5 113.829 146.58 112.675L147.93 113.406C148.682 113.81 149.376 114.195 149.473 114.291C149.588 114.388 149.396 114.792 148.971 115.369C148.586 115.87 147.93 116.524 147.525 116.813C147.1 117.102 146.387 117.506 145.905 117.717C145.423 117.929 144.516 118.16 143.88 118.237C143.166 118.314 142.317 118.276 141.662 118.122C141.083 117.987 140.196 117.679 139.675 117.429C139.174 117.179 138.364 116.563 137.881 116.062C137.399 115.542 136.763 114.657 136.493 114.08C136.03 113.137 135.972 112.79 135.972 111C135.972 109.229 136.03 108.844 136.473 107.92C136.743 107.343 137.399 106.438 137.92 105.919C138.441 105.399 139.212 104.802 139.637 104.59Z" fill="white"/>
<path d="M185.828 104.494C186.31 104.263 187.082 103.994 187.564 103.898C188.046 103.782 189.03 103.744 189.782 103.801C190.746 103.859 191.46 104.052 192.289 104.437C193.003 104.783 193.832 105.399 194.449 106.073C195.009 106.669 195.472 107.266 195.472 107.401C195.472 107.516 194.854 107.959 194.122 108.363C193.369 108.748 192.714 109.075 192.617 109.075C192.54 109.075 192.135 108.748 191.711 108.344C191.171 107.824 190.669 107.555 189.975 107.401C189.435 107.285 188.741 107.266 188.432 107.343C188.123 107.42 187.564 107.612 187.217 107.786C186.889 107.978 186.33 108.517 186.021 109.037C185.558 109.749 185.443 110.153 185.443 111C185.443 111.828 185.558 112.251 185.983 112.925C186.33 113.502 186.812 113.945 187.371 114.214C187.911 114.484 188.606 114.657 189.146 114.657C189.666 114.657 190.361 114.522 190.689 114.349C191.036 114.195 191.595 113.733 192.54 112.636L193.948 113.425C194.739 113.849 195.394 114.349 195.414 114.522C195.452 114.715 194.951 115.388 194.257 116.062C193.389 116.967 192.752 117.41 191.904 117.737C191.036 118.083 190.361 118.199 189.203 118.199C188.22 118.218 187.313 118.083 186.696 117.871C186.156 117.698 185.288 117.217 184.768 116.813C184.227 116.409 183.475 115.62 183.09 115.042C182.627 114.368 182.241 113.483 182.029 112.636C181.778 111.558 181.759 111.039 181.913 110.038C182.01 109.345 182.299 108.363 182.549 107.824C182.8 107.304 183.456 106.419 183.996 105.899C184.517 105.36 185.346 104.725 185.828 104.494Z" fill="white"/>
<path d="M264.711 104.513C265.193 104.263 265.965 103.994 266.447 103.898C266.929 103.782 267.874 103.724 268.568 103.763C269.301 103.801 270.227 104.013 270.786 104.244C271.307 104.475 272.079 104.898 272.503 105.187C272.908 105.476 273.525 106.092 273.872 106.573C274.219 107.054 274.701 107.997 274.933 108.69C275.261 109.672 275.338 110.249 275.28 111.385C275.222 112.482 275.049 113.137 274.605 114.08C274.296 114.773 273.641 115.716 273.178 116.158C272.715 116.62 271.943 117.198 271.461 117.448C270.979 117.698 270.073 117.987 269.436 118.122C268.703 118.276 267.855 118.295 267.122 118.218C266.447 118.122 265.444 117.814 264.711 117.429C264.017 117.082 263.129 116.447 262.724 116.024C262.339 115.581 261.799 114.811 261.529 114.272C261.259 113.752 260.95 112.809 260.834 112.213C260.68 111.385 260.699 110.769 260.854 109.845C260.989 109.152 261.297 108.171 261.586 107.632C261.857 107.112 262.474 106.284 262.956 105.803C263.438 105.322 264.229 104.744 264.711 104.513Z" fill="white"/>
<path d="M17.8022 111.039C17.783 107.247 17.8408 104.071 17.9372 104.013C18.0337 103.936 19.6923 103.878 21.6403 103.878C24.2054 103.878 25.3433 103.955 25.7869 104.148C26.1341 104.283 26.7127 104.706 27.0792 105.052C27.4456 105.418 27.8699 106.015 28.0242 106.381C28.1785 106.746 28.2942 107.535 28.2942 108.113C28.2942 108.71 28.1785 109.422 28.0049 109.749C27.7156 110.288 27.7156 110.365 28.1592 111.058C28.4292 111.443 28.7185 112.136 28.815 112.598C28.9114 113.06 28.9114 113.81 28.7957 114.368C28.7185 114.907 28.4099 115.658 28.1592 116.062C27.8892 116.447 27.3106 117.005 26.0762 117.833L17.8408 117.929L17.8022 111.039Z" fill="white"/>
<path d="M34.196 111.039C34.1767 107.247 34.2538 104.071 34.331 103.994C34.4274 103.917 35.2374 103.898 37.8026 103.975L37.899 114.657L43.2029 114.753L43.2993 117.929H34.2345L34.196 111.039Z" fill="white"/>
<path d="M50.7247 110.962C52.0555 107.324 53.1741 104.244 53.232 104.129C53.2898 103.955 53.8684 103.878 57.0893 103.859L59.6351 110.75C61.0431 114.542 62.2003 117.698 62.2003 117.794C62.2003 117.871 61.3517 117.91 58.4587 117.833L57.6486 115.716L52.8462 115.6L52.0555 117.833L50.1846 117.891C49.1239 117.91 48.3138 117.852 48.3138 117.756C48.2946 117.66 49.3939 114.599 50.7247 110.962Z" fill="white"/>
<path d="M85.1129 111.039C85.0936 107.247 85.1515 104.071 85.2479 104.013C85.3444 103.936 86.1737 103.878 88.8353 103.878L88.9124 108.787L92.9626 103.859L94.9299 103.878C96.0485 103.878 96.955 103.955 97.0128 104.071C97.0707 104.167 96.0292 105.611 94.6984 107.247C92.5769 109.884 92.3069 110.269 92.519 110.577C92.654 110.769 93.927 112.444 95.3156 114.291C96.7235 116.139 97.8807 117.698 97.8807 117.794C97.8807 117.871 96.9357 117.929 93.6376 117.929L91.979 115.773C91.0532 114.58 90.2239 113.502 90.1275 113.406C90.0117 113.29 89.7417 113.444 89.3946 113.887C88.8546 114.522 88.8353 114.676 88.816 117.929H85.1515L85.1129 111.039Z" fill="white"/>
<path d="M108.778 114.638C109.144 114.253 109.163 113.926 109.221 109.056L109.279 103.878H112.732L112.693 109.422C112.635 114.08 112.577 115.042 112.326 115.523C112.153 115.85 111.709 116.389 111.362 116.755C110.996 117.121 110.321 117.602 109.839 117.814C109.183 118.122 108.585 118.218 107.428 118.218C106.251 118.218 105.673 118.102 105.017 117.794C104.535 117.563 103.86 117.063 103.512 116.697C103.185 116.312 102.915 115.85 102.934 115.677C102.972 115.504 103.551 115.023 105.499 113.926L106.116 114.484C106.598 114.907 106.945 115.042 107.563 115.042C108.161 115.061 108.508 114.946 108.778 114.638Z" fill="white"/>
<path d="M120.601 110.711C121.758 107.535 122.818 104.706 122.934 104.417C123.146 103.878 123.147 103.878 126.907 103.878L129.395 110.673C130.765 114.388 131.922 117.564 131.941 117.698C131.999 117.872 131.555 117.929 128.257 117.929L127.447 115.716L122.664 115.6L121.796 117.929H117.939L118.209 117.217C118.363 116.813 119.424 113.887 120.601 110.711Z" fill="white"/>
<path d="M154.969 117.929V103.878H158.441V106.188C158.441 107.535 158.518 108.536 158.634 108.594C158.73 108.652 159.695 107.612 162.684 103.878H164.709C165.866 103.878 166.773 103.955 166.831 104.071C166.889 104.186 165.847 105.611 164.516 107.247C163.031 109.075 162.163 110.326 162.241 110.48C162.318 110.596 163.571 112.29 165.037 114.234C166.503 116.158 167.699 117.775 167.699 117.833C167.699 117.891 166.715 117.929 163.359 117.91L161.623 115.619C160.659 114.349 159.83 113.329 159.733 113.31C159.656 113.31 159.328 113.675 159.02 114.137C158.48 114.869 158.422 115.081 158.441 117.929H154.969Z" fill="white"/>
<path d="M201.894 111.116C203.167 107.612 204.266 104.552 204.363 104.321C204.517 103.898 204.633 103.878 208.297 103.878L210.843 110.808C212.251 114.619 213.408 117.775 213.408 117.833C213.408 117.891 212.56 117.929 209.647 117.929L208.857 115.716L203.958 115.619L203.244 117.833L201.393 117.891C200.062 117.91 199.541 117.871 199.56 117.717C199.58 117.583 200.64 114.619 201.894 111.116Z" fill="white"/>
<path d="M233.466 117.929V110.904L233.486 103.859L237.034 103.975L237.131 117.929H233.466Z" fill="white"/>
<path d="M243.669 117.948L243.688 110.904V103.878L247.218 103.994L249.127 106.977C250.169 108.613 251.152 109.98 251.307 109.999C251.538 110.038 251.577 109.576 251.577 103.898H255.048V117.948L252.059 117.929L249.841 114.426C248.626 112.521 247.546 110.942 247.43 110.923C247.314 110.923 247.218 112.232 247.141 117.948H243.669Z" fill="white"/>
<path d="M21.4667 108.248C21.4474 107.786 21.5053 107.343 21.6017 107.285C21.6982 107.208 22.3539 107.15 23.0868 107.15C24.1476 107.15 24.4754 107.227 24.784 107.535C24.9962 107.747 25.1698 108.036 25.1698 108.151C25.1698 108.286 25.0155 108.556 24.8226 108.748C24.5719 109.017 24.1861 109.094 21.5053 109.075L21.4667 108.248Z" fill="#009DD1"/>
<path d="M265.868 107.978C266.235 107.728 266.852 107.458 267.218 107.362C267.585 107.266 268.028 107.227 268.183 107.247C268.337 107.285 268.78 107.381 269.147 107.458C269.513 107.535 270.15 107.901 270.555 108.286C271.076 108.787 271.384 109.268 271.577 109.98C271.808 110.865 271.808 111.135 271.558 112.059C271.326 112.886 271.095 113.252 270.458 113.791C269.995 114.176 269.32 114.522 268.954 114.599C268.588 114.657 267.893 114.657 267.411 114.599C266.929 114.522 266.273 114.272 265.926 114.041C265.598 113.791 265.116 113.31 264.865 112.944C264.595 112.521 264.383 111.905 264.344 111.308C264.287 110.557 264.383 110.095 264.73 109.383C265 108.825 265.482 108.228 265.868 107.978Z" fill="#009DD1"/>
<path d="M54.3313 111.635C54.4084 111.327 54.6013 110.769 54.7749 110.365C54.9678 109.961 55.1992 109.653 55.3149 109.691C55.4114 109.73 55.6621 110.172 55.8549 110.711C56.0285 111.231 56.2021 111.789 56.2021 111.905C56.2214 112.078 55.8935 112.155 55.2185 112.155C54.1963 112.155 54.1963 112.155 54.3313 111.635Z" fill="#009DD1"/>
<path d="M124.072 112.059C123.976 112.001 124.111 111.443 124.342 110.808C124.574 110.172 124.863 109.653 124.979 109.653C125.075 109.633 125.364 110.134 125.596 110.75C125.846 111.366 126.039 111.924 126.039 112.001C126.039 112.097 125.634 112.155 125.133 112.155C124.612 112.155 124.149 112.116 124.072 112.059Z" fill="#009DD1"/>
<path d="M205.559 111.577C205.636 111.27 205.829 110.692 205.983 110.326C206.137 109.961 206.349 109.653 206.465 109.653C206.561 109.653 206.831 110.134 207.044 110.711C207.256 111.289 207.429 111.866 207.429 111.962C207.429 112.059 206.967 112.155 205.404 112.155L205.559 111.577Z" fill="#009DD1"/>
<path d="M21.5053 114.657V112.347H23.2025C24.5333 112.347 24.9576 112.424 25.2276 112.694C25.4205 112.867 25.5748 113.214 25.5555 113.444C25.5555 113.695 25.3819 114.06 25.1698 114.272C24.8419 114.599 24.5333 114.657 21.5053 114.657Z" fill="#009DD1"/>
</g>
<defs>
<clipPath id="clip0_9_9">
<rect width="284" height="123" fill="white"/>
</clipPath>
</defs>
</svg>
