<svg width="151" height="271" viewBox="0 0 151 271" fill="none" xmlns="http://www.w3.org/2000/svg">
<path fill-rule="evenodd" clip-rule="evenodd" d="M58.2697 0.254146C58.5983 0.474624 65.771 6.09679 74.2578 12.7662C82.6898 19.4357 103.332 35.6958 120.032 48.8693C136.786 62.0428 150.365 72.9565 150.31 73.1218C150.256 73.2872 148.504 74.3896 146.478 75.6022C144.397 76.8148 140.838 79.4605 134.158 85.2481L132.406 83.9803C131.42 83.2638 111.381 67.9957 87.8914 50.0268C64.4021 32.0028 44.9646 17.1758 44.7456 16.9553C44.5266 16.7899 47.319 12.8765 50.9875 8.24644C54.875 3.34083 57.8865 0.0336694 58.2697 0.254146ZM59.2553 15.7427C58.5983 16.0734 57.8865 16.9002 57.7222 17.6167C57.5579 18.2781 57.7222 19.5459 58.1602 20.3727C58.5435 21.1995 59.2005 22.0263 59.5291 22.1365C59.9123 22.3019 60.2409 22.6877 60.2409 22.9633C60.2409 23.2389 59.7481 23.4042 59.1458 23.2389C58.5435 23.0735 58.0507 23.2389 58.0507 23.5145C58.0507 23.7901 58.9815 24.7822 60.0766 25.609C61.2264 26.4909 62.5405 27.4279 62.9785 27.7035C63.5808 28.0894 63.6903 27.924 63.3618 26.7114C63.1428 25.8295 63.1428 25.1681 63.3618 25.1681C63.6356 25.1681 64.2926 25.5539 64.8949 25.9948C65.4972 26.4909 66.4828 26.8216 67.0851 26.8768C67.6873 26.8768 68.7824 26.4358 69.4395 25.8846C70.6988 24.9476 70.6988 24.7271 70.425 19.2703C70.1513 15.3017 69.8775 13.593 69.3847 13.6481C69.0562 13.7032 66.866 14.034 64.6211 14.4198C62.3763 14.8056 59.9671 15.3568 59.2553 15.7427ZM82.416 0.0336694C85.975 0.0887887 89.2602 0.529743 91.7241 1.24629C93.8595 1.90772 97.528 3.23059 99.9372 4.22273C102.346 5.21488 106.672 7.36453 109.519 9.01811C112.366 10.6717 116.966 13.6481 119.648 15.6875C122.331 17.727 126.876 21.5853 129.723 24.3413C132.516 27.0421 136.403 31.3965 138.319 33.9871C140.236 36.5777 142.645 40.2707 143.685 42.255C144.726 44.2393 145.93 47.2158 146.423 48.8693C146.916 50.5229 147.299 53.1686 147.299 54.6569C147.299 56.2002 146.806 58.405 146.204 59.783C145.547 61.1058 144.78 62.0428 144.342 61.9877C143.904 61.8775 127.204 48.9245 107.219 33.2155C87.2344 17.4514 70.8083 4.49833 70.644 4.38809C70.4798 4.33297 70.7535 3.8369 71.1916 3.34083C71.6296 2.84475 73.1079 1.85261 74.4768 1.13605C76.6122 0.0336695 77.6525 -0.0765691 82.416 0.0336694ZM41.5699 20.2073C41.7342 20.2073 62.1025 35.5305 86.7963 54.2159C111.49 72.9013 131.749 88.2245 131.804 88.2245C131.858 88.2796 131.037 89.5474 129.997 91.0356C128.902 92.5789 127.752 93.7915 127.423 93.7364C127.04 93.7364 106.398 78.744 81.4852 60.3893C56.5724 42.0897 36.2041 26.987 36.1493 26.8216C36.1493 26.6563 37.2991 25.1129 38.7227 23.3491C40.0916 21.6404 41.4057 20.2073 41.5699 20.2073ZM114.611 49.4757C113.79 49.6961 111.654 50.0268 109.902 50.1922C107.822 50.4127 106.416 50.8904 105.686 51.6253C105.084 52.2316 104.591 53.4442 104.591 54.3813C104.591 55.4837 105.048 56.4023 105.96 57.1372C106.727 57.7435 107.329 58.3499 107.329 58.5152C107.329 58.6806 106.672 58.8459 105.796 58.9011C104.372 59.0664 104.372 59.1215 107.055 61.1609C108.533 62.3184 109.957 63.2004 110.176 63.2004C110.45 63.2004 110.45 62.3736 110.286 61.3814C109.957 59.6176 109.957 59.6176 110.833 60.8302C111.49 61.7673 112.257 62.098 113.899 62.098C115.542 62.098 116.308 61.8224 116.911 60.8302C117.677 59.7278 117.677 59.0664 116.966 54.3261L116.144 49.0898L114.611 49.4757ZM120.853 63.8618C120.305 64.5232 119.922 65.5705 119.922 66.0666C119.922 66.6177 120.689 67.7753 121.565 68.7123C122.496 69.5942 122.934 70.3659 122.55 70.421C122.167 70.4761 121.565 70.4761 121.182 70.421C120.798 70.3659 120.524 70.6415 120.634 70.9171C120.689 71.2478 121.948 72.4604 123.481 73.5628C126.055 75.492 126.164 75.5471 125.781 74.2242C125.562 73.4525 125.507 72.6258 125.671 72.4053C125.836 72.1848 126.438 72.5155 127.04 73.1218C127.642 73.7281 128.683 74.2242 129.395 74.2242C130.052 74.2242 131.201 73.8384 131.913 73.2872C133.173 72.295 133.173 72.0746 132.899 66.6177C132.625 61.657 132.461 60.9956 131.585 61.0507C131.037 61.1058 128.628 61.4365 126.219 61.8775C122.879 62.4287 121.62 62.8696 120.853 63.8618ZM78.8571 26.546C76.6122 26.8216 74.9696 27.3728 74.3673 27.9791C73.8197 28.5855 73.3817 29.743 73.3817 30.68C73.3817 31.5619 73.765 32.6643 74.203 33.1604C74.641 33.6013 75.2981 33.9871 75.5719 33.9871C75.9004 33.9871 76.1194 34.2076 76.1194 34.5383C76.1194 34.8139 75.4623 35.1446 74.641 35.1998C73.1627 35.3651 73.2174 35.4202 75.8456 37.4597C77.3787 38.562 78.8023 39.4991 79.0213 39.4991C79.2403 39.4991 79.2403 38.7825 79.0761 37.9557L78.6928 36.4675C80.6639 38.2313 81.8685 38.6172 82.9088 38.6172C84.0039 38.562 84.9347 38.066 85.5918 37.2392C86.1393 36.4675 86.5773 35.5305 86.5226 35.0895C86.5226 34.5934 86.1393 32.2233 85.756 29.7981C84.9895 25.5539 84.9347 25.3885 83.6754 25.7192C83.0183 25.9397 80.8282 26.3256 78.8571 26.546ZM150.584 151.391L150.913 171.62C151.077 183.581 151.022 194.825 150.639 199.069C150.365 202.983 149.708 208.219 149.215 210.644C148.723 213.07 147.737 216.873 146.97 219.188C146.204 221.448 144.561 225.527 143.192 228.283C141.878 230.983 139.524 235.228 137.936 237.653C136.348 240.133 132.297 244.873 128.738 248.456C125.233 251.984 120.524 256.118 118.28 257.606C116.035 259.149 111.983 261.519 109.245 262.842C106.562 264.22 102.62 265.984 100.485 266.756C98.4041 267.472 93.5858 268.795 89.8078 269.567C84.4419 270.669 81.4305 271 75.5719 271C69.9322 271 66.7018 270.669 61.8835 269.677C58.434 268.961 53.6704 267.693 51.3708 266.921C49.0164 266.15 45.0741 264.441 42.6102 263.228C40.0916 261.96 35.9851 259.535 33.4116 257.826C30.893 256.118 26.5674 252.59 23.9393 250.055C21.2564 247.464 17.4784 243.22 15.562 240.684C13.6456 238.094 10.7984 233.519 9.26533 230.487C7.67748 227.456 5.81586 223.322 5.10407 221.393C4.39227 219.408 3.2972 215.826 2.69491 213.4C2.14738 210.975 1.27132 205.739 0.833291 201.825C0.395263 197.857 0.0119884 190.305 0.0119884 185.014C-0.0427652 176.195 0.0667419 175.423 0.833291 176.195C1.32607 176.636 1.70935 177.352 1.65459 177.848C1.65459 178.289 2.42114 180.274 3.40671 182.258C4.39227 184.187 6.58241 187.219 8.22502 188.927C10.2509 191.077 12.5505 192.676 15.343 194.054C17.9164 195.266 20.8731 196.203 23.2822 196.534C25.6914 196.865 28.4291 196.865 30.5645 196.534C32.4261 196.258 34.9995 195.597 36.3136 195.101C37.5729 194.605 39.5988 193.557 40.8034 192.841C42.0079 192.069 43.8696 190.636 46.8263 187.77L48.4689 189.423C49.3997 190.361 51.2065 191.849 52.5754 192.731C53.9442 193.613 56.1344 194.715 57.5032 195.211C58.872 195.652 61.4454 196.313 63.2523 196.534C65.2782 196.865 68.0706 196.809 70.3703 196.534C72.6699 196.203 75.7361 195.266 78.0358 194.109C80.4997 192.951 83.0183 191.132 85.099 189.038C87.1248 186.998 88.9865 184.408 90.1363 181.982C91.1766 179.833 92.2717 176.636 92.6002 174.817C92.9287 172.998 93.093 170.021 92.9287 168.203C92.7645 166.384 92.1074 163.407 91.5051 161.588C90.8481 159.769 89.4245 156.903 88.3294 155.25C87.1796 153.541 86.194 151.998 86.0845 151.777C85.975 151.557 100.43 151.391 150.584 151.391ZM89.6435 40.1605C89.096 40.8219 88.7127 41.8692 88.7127 42.3653C88.7127 42.9165 89.315 44.0188 90.0815 44.8456C90.8481 45.6724 91.2314 46.5543 91.0123 46.7748C90.8481 46.9953 90.3006 46.9953 89.8625 46.7748C89.3515 46.5176 89.169 46.6278 89.315 47.1055C89.4245 47.4914 90.7386 48.7591 92.2717 49.8615C94.8451 51.7907 94.9546 51.8458 94.5713 50.5229C94.3523 49.7513 94.2976 48.9245 94.4618 48.704C94.6261 48.4835 95.2284 48.8142 95.8307 49.4205C96.4329 50.0268 97.4733 50.5229 98.1851 50.5229C98.8421 50.5229 99.9919 50.1371 100.704 49.5859C101.963 48.5937 101.963 48.4284 101.635 42.9165C101.416 38.8928 101.142 37.2943 100.649 37.3494C100.266 37.4045 97.8565 37.7353 95.2831 38.1762C91.6146 38.7274 90.4648 39.1683 89.6435 40.1605ZM33.3021 30.68C33.5211 30.68 34.452 31.2863 36.9706 33.3257L35.6018 33.8769C34.8352 34.1525 33.2474 34.8139 32.0428 35.31C30.8382 35.8061 29.6884 36.1919 29.4694 36.1919C29.2504 36.1919 29.0314 35.9714 28.9766 35.751C28.9766 35.4754 29.8527 34.2627 30.9477 32.995C32.0428 31.7272 33.1379 30.68 33.3021 30.68ZM42.2817 37.4045C43.103 37.9557 43.9243 38.562 44.0886 38.7825C44.1981 39.003 43.1578 39.8849 41.7342 40.6566C40.3106 41.4834 37.0801 42.8613 34.5067 43.7984C31.9333 44.6803 28.4838 45.6724 26.8412 46.0031C25.1986 46.2787 23.0632 46.7197 22.0777 46.885C20.8183 47.1055 20.2708 46.9953 20.3255 46.4992C20.3255 46.1134 21.0373 45.011 21.9682 44.0188C23.2275 42.5857 24.4321 42.0346 28.1005 41.0975C30.5645 40.4912 34.452 39.1684 36.6421 38.1762C40.6939 36.4124 40.7486 36.4124 42.2817 37.4045ZM48.3593 42.3102C48.5784 42.255 49.4544 42.8613 50.2757 43.633C51.7541 45.011 51.7541 45.011 50.659 45.8929C50.0567 46.3339 47.3738 47.8221 44.6361 49.1449C41.9532 50.4678 37.7372 52.1765 35.328 53.0033C32.9189 53.775 28.8671 54.7671 26.2937 55.2081C23.7203 55.7041 19.559 55.9797 12.3863 55.7593L14.1384 53.6647C15.7263 51.8458 16.1643 51.6253 18.5187 51.6253C19.9423 51.6253 23.1727 51.2395 25.7461 50.7434C28.3196 50.2473 32.2618 49.2552 34.5067 48.5386C36.7516 47.8221 40.6939 46.1134 43.2673 44.7905C45.8407 43.4677 48.1403 42.3102 48.3593 42.3102ZM56.4081 48.3181C56.8461 48.5386 57.6674 49.2552 58.215 49.9166C59.1458 51.019 59.091 51.0741 55.7511 53.1686C53.8347 54.3813 51.097 55.9246 49.5639 56.6963C48.0856 57.4679 44.8551 58.9011 42.446 59.8932C40.0368 60.8302 35.6018 62.2082 32.5903 62.9248C29.5789 63.6964 24.4321 64.5232 21.0921 64.7988C17.8069 65.0744 13.0433 65.1295 10.5794 64.9642C8.06076 64.7437 6.03488 64.3027 6.03488 64.0271C6.08963 63.6964 6.69192 62.7594 7.45847 61.9326C8.77255 60.4444 8.82731 60.4444 15.781 60.4444C20.9278 60.4444 24.3773 60.0586 29.0314 59.1215C32.4808 58.405 37.9014 56.8065 41.0771 55.5388C44.2528 54.271 48.7974 52.0663 51.2065 50.578C54.0902 48.8142 55.8241 48.0609 56.4081 48.3181ZM27.6625 69.5391C29.4694 69.7044 32.2071 70.421 33.6854 71.1375C35.2185 71.799 37.3539 73.2872 38.5037 74.3896C39.5988 75.4919 41.1866 77.6967 42.0079 79.2952C43.3768 81.8858 43.541 82.8228 43.4863 87.4528C43.4863 90.9437 43.1578 93.7916 42.5007 95.9963C41.9532 97.8153 40.7486 101.012 39.9273 103.162C39.0513 105.256 38.3395 107.957 38.3395 109.06C38.3395 110.603 38.6132 111.209 39.325 111.319C39.8178 111.43 41.5152 111.209 42.9935 110.823C44.5266 110.438 46.0049 110.052 46.2787 110.052C46.6072 109.997 47.8118 110.768 49.0164 111.705C50.221 112.642 51.8088 113.359 52.5754 113.414C53.3419 113.414 54.218 113.083 54.6012 112.697C54.9298 112.312 55.313 111.099 55.4226 110.052C55.5868 108.453 55.8606 108.067 56.9557 107.902C57.8317 107.792 58.5983 108.123 59.0363 108.729C59.4196 109.335 59.6933 110.603 59.6933 111.705C59.6933 113.194 59.2005 114.075 57.5579 115.674C55.6963 117.493 55.1488 117.768 52.7944 117.768C50.9875 117.713 49.3997 117.327 47.8118 116.39C45.7312 115.123 45.1836 115.068 42.9935 115.564C41.3509 115.931 39.7995 115.931 38.3395 115.564C36.8064 115.178 35.8755 114.461 35.0542 113.194C34.452 112.201 33.9592 110.438 33.9592 109.225C33.9592 108.012 35.0542 103.878 36.4231 99.9649C37.7919 96.1066 38.7775 92.9648 38.6132 92.9648C38.449 92.9648 37.4634 93.6262 36.3683 94.453C34.3972 95.9412 34.1234 95.9963 18.0807 96.2719L17.3141 94.453C16.9308 93.4608 16.3833 91.697 16.1643 90.4844C15.9453 89.1615 16.0548 87.3977 16.438 86.0749C16.8213 84.8622 17.8069 82.9882 18.5734 81.9409C19.34 80.8936 20.9826 79.6259 22.1872 79.0747C23.3917 78.5235 25.4724 78.0826 26.8412 78.0826C28.2101 78.0826 30.5645 78.4133 32.0428 78.7991C33.5759 79.2401 35.328 79.8464 36.0398 80.1771C36.6968 80.5629 37.4634 80.6732 37.6824 80.5078C37.9014 80.3424 36.9706 79.1298 35.6018 77.807C33.8497 76.1534 32.2071 75.1612 29.8527 74.4998C27.1697 73.673 26.1294 73.6179 23.8298 74.114C22.0229 74.5549 20.2708 75.4368 18.6282 76.8699C17.2046 78.1377 15.343 80.5629 14.1932 82.8228C13.0981 84.9173 11.565 88.6103 10.7984 91.0356C10.0319 93.4608 8.99157 97.6499 8.44403 100.406C7.67748 104.154 7.45847 107.847 7.45847 115.564C7.45847 121.241 7.78699 127.69 8.17026 130.17C8.55354 132.596 9.48435 136.564 10.2509 138.989C11.0174 141.415 12.441 145.163 15.343 151.391L18.7924 149.903C20.7088 149.076 23.8298 148.304 29.5789 147.808L29.6884 145.659C29.7979 144.391 30.2359 143.234 30.7835 142.903C31.4953 142.407 31.988 142.517 32.8641 143.399C33.9592 144.446 34.0139 144.997 34.0139 157.179C33.9592 164.124 33.7402 170.793 33.4116 171.896C33.1379 173.053 32.1523 174.596 31.2215 175.368C30.0169 176.36 28.9766 176.746 27.115 176.746C25.3081 176.746 24.213 176.36 23.0085 175.368C22.0777 174.596 21.1468 173.108 20.8731 171.896C20.4898 170.462 20.5446 169.25 20.9826 167.982C21.3659 166.935 22.3514 165.557 23.2275 164.951C24.1583 164.234 25.5819 163.793 26.896 163.793C28.8671 163.793 29.0314 163.683 29.0314 162.25C29.0314 161.258 28.7028 160.651 28.1005 160.486C27.553 160.32 26.2389 160.431 25.1986 160.651C24.1583 160.872 22.5157 161.643 21.5301 162.305C20.5446 162.966 19.2305 164.565 18.5734 165.832C17.6974 167.541 17.4784 168.919 17.6426 170.959C17.7521 173.053 18.2449 174.321 19.4495 175.919C20.3803 177.077 22.0777 178.51 23.2822 179.006C24.4868 179.557 26.2389 179.998 27.115 179.998C28.0458 179.998 29.7432 179.557 30.9477 179.006C32.1523 178.51 33.9044 177.077 36.4231 173.77L36.6968 158.722C36.9159 146.1 37.1349 143.509 37.7919 143.123C38.2299 142.793 38.887 142.572 39.1608 142.572C39.4893 142.572 40.0368 142.848 40.4201 143.234C40.9676 143.785 41.0771 147.478 41.0771 158.557C41.0771 172.006 40.9676 173.329 39.9273 175.644C39.325 176.967 38.0657 178.951 37.0801 179.943C36.1493 180.935 34.3424 182.313 33.1379 182.975C31.55 183.856 29.9622 184.132 27.115 184.132C23.8845 184.187 22.8442 183.912 20.3803 182.534C18.7377 181.597 16.8213 179.998 16 178.951C15.2335 177.848 14.3027 176.195 13.8646 175.203C13.4814 174.211 13.1528 171.896 13.1528 169.966C13.1528 167.706 13.5361 165.777 14.2479 164.344C14.7954 163.132 16.3833 161.092 17.8069 159.769C19.4495 158.226 21.2564 157.179 23.1727 156.628C24.7606 156.131 26.7317 155.801 27.553 155.801C28.8671 155.801 29.0314 155.58 29.0314 152.218L25.6366 152.549C23.7203 152.714 20.9826 153.486 19.5042 154.202C18.0259 154.919 15.8358 156.517 14.6312 157.73C13.4266 158.943 11.8387 161.258 11.0722 162.966C9.92238 165.336 9.64861 166.825 9.64861 170.132C9.64861 173.384 9.92238 174.872 11.0722 177.297C11.8387 178.951 13.4266 181.266 14.5764 182.423C15.781 183.581 17.9711 185.234 19.4495 186.006C21.8586 187.274 22.8442 187.494 27.115 187.494C31.3858 187.494 32.4261 187.274 34.7805 186.006C36.3136 185.234 38.7227 183.25 40.1463 181.652C41.6247 179.998 43.1578 177.518 43.6505 176.195C44.4171 174.211 44.6361 170.793 44.8004 158.832C44.9646 148.58 45.2384 143.73 45.6764 143.234C46.005 142.848 46.5525 142.517 46.8263 142.517C47.1548 142.572 47.7571 142.793 48.1951 143.123C48.9069 143.509 49.0711 146.21 49.2902 159.494C49.5639 175.258 49.5639 175.368 50.9875 178.124C51.8088 179.612 53.6157 181.927 55.094 183.25C56.5724 184.518 59.091 186.116 60.6789 186.668C62.2667 187.274 64.8402 187.77 66.428 187.77C68.0159 187.77 70.5345 187.384 72.0129 186.943C73.546 186.502 75.9551 185.179 77.4335 184.022C79.2403 182.699 80.8282 180.77 82.0875 178.4C83.9491 175.037 84.0586 174.486 84.0586 170.132C84.0039 166.328 83.7849 164.895 82.6898 162.691C81.978 161.147 80.3902 158.943 79.1308 157.675C77.9263 156.462 75.7361 154.864 74.203 154.147C72.7247 153.431 69.9322 152.714 64.6211 152.218V156.076L67.7969 156.187C70.0965 156.297 71.6296 156.738 73.6555 157.895C75.1886 158.777 77.1597 160.596 78.0905 161.919C79.0213 163.242 80.0616 165.612 80.3902 167.21C80.8829 169.305 80.8829 170.848 80.4997 172.722C80.1712 174.155 79.3498 176.36 78.6381 177.573C77.9263 178.785 76.3931 180.494 75.2433 181.376C74.0935 182.258 72.0129 183.36 70.644 183.746C69.2752 184.132 67.4136 184.463 66.428 184.463C65.4424 184.463 63.3618 183.967 61.774 183.36C60.1314 182.754 57.996 181.376 56.9009 180.219C55.8058 179.061 54.437 177.242 53.8895 176.195C52.9586 174.431 52.8491 172.833 52.8491 158.887C52.8491 144.832 52.9586 143.454 53.8347 142.903C54.5465 142.462 55.0393 142.462 55.7511 142.903C56.5724 143.454 56.7366 144.997 56.9557 158.336C57.2294 171.069 57.3937 173.384 58.215 174.927C58.7078 175.919 59.8576 177.242 60.6789 177.848C61.5002 178.51 63.1428 179.226 64.3474 179.557C65.552 179.888 67.3041 179.998 68.1801 179.833C69.1109 179.667 70.6988 178.951 71.7391 178.234C72.7794 177.518 74.203 176.085 74.9148 175.037C75.7909 173.714 76.1741 172.337 76.1741 170.518C76.1194 169.084 75.7909 167.1 75.4076 166.108C75.0243 165.116 73.8745 163.628 72.9437 162.801C72.0129 161.974 70.206 161.037 69.0014 160.761C67.7968 160.431 66.3185 160.32 65.7162 160.486C64.9497 160.651 64.6211 161.202 64.6211 162.25C64.6211 163.628 64.7854 163.738 66.428 163.628C67.5231 163.517 68.8919 163.903 69.987 164.565C70.9726 165.226 72.1224 166.659 72.6152 167.762C73.1627 169.029 73.3817 170.518 73.1627 171.62C72.9437 172.777 72.1224 174.045 70.8083 175.148C68.9467 176.691 68.4539 176.856 65.99 176.581C63.8546 176.36 62.9785 175.919 60.2409 172.888L60.4051 158.171C60.5146 145.108 60.6241 143.454 61.4454 142.903C62.1572 142.407 62.5953 142.517 63.5261 143.399C64.2379 144.06 64.6759 145.163 64.6759 146.265C64.6211 148.029 64.6759 148.084 67.0851 148.084C68.4539 148.084 70.9726 148.525 72.7247 149.076C74.422 149.572 77.2145 150.895 78.8023 151.942C80.4449 152.99 82.5803 154.864 83.5659 156.076C84.5514 157.289 86.0298 159.769 86.8511 161.588C87.8366 163.738 88.4389 166.218 88.6032 168.754C88.8222 171.675 88.6032 173.549 87.7819 176.47C87.0701 178.785 85.8108 181.431 84.5514 183.085C83.4016 184.573 81.8685 186.392 81.102 187.108C80.3354 187.77 78.2548 189.093 76.5574 189.975C74.8053 190.857 71.7939 191.849 69.8227 192.179C67.0851 192.62 65.3877 192.51 62.3215 191.904C60.1314 191.408 57.3389 190.471 56.1343 189.754C54.9298 189.038 53.1229 187.715 52.0826 186.833C51.097 186.006 49.5092 184.132 46.9358 180.329L46.0597 181.707C45.5669 182.423 44.0886 184.242 42.7197 185.73C41.3509 187.219 38.8322 189.093 36.9706 190.03C35.1638 190.912 32.2071 191.849 30.4002 192.179C28.2648 192.51 25.9652 192.51 23.8298 192.179C22.0229 191.849 19.0662 190.912 17.2593 190.03C15.2882 189.038 12.9338 187.219 11.2365 185.455C9.75812 183.801 7.95125 181.321 7.29421 179.888C6.58241 178.455 5.76111 175.974 5.43259 174.376C5.10407 172.777 4.99456 170.077 5.15882 168.313C5.32308 166.604 5.98012 163.848 6.58241 162.25C7.1847 160.651 8.60829 158.171 11.784 153.982L10.0866 150.62C9.10107 148.745 7.62273 145.108 6.69192 142.572C5.81586 139.981 4.66604 135.737 4.1185 133.202C3.62572 130.611 3.07819 124.438 2.91393 119.422C2.69491 113.634 2.85917 108.288 3.2972 104.815C3.68047 101.784 4.55653 96.9333 5.26833 94.0671C6.03488 91.1458 7.23945 87.1772 8.006 85.2481C8.77255 83.2638 10.5247 79.9566 11.9483 77.8621C13.3718 75.7675 15.5072 73.3423 16.7118 72.4604C17.9164 71.5785 20.1613 70.4761 21.6396 70.0351C23.337 69.5391 25.6366 69.3737 27.6625 69.5391ZM28.4838 91.3112C36.8611 91.3112 38.449 91.4765 38.5585 91.9726C38.7227 92.3584 38.8322 92.138 38.8322 91.4214C38.887 90.5946 38.2299 89.7678 36.8611 88.8308C35.2733 87.7284 34.1234 87.4528 31.6595 87.4528H28.4838V91.3112ZM24.8153 170.462C24.8701 170.959 25.3629 171.675 25.9104 172.006C26.6222 172.447 27.115 172.447 27.8268 172.006C28.3196 171.675 28.8123 170.903 28.8123 170.352C28.8123 169.801 28.4838 169.029 27.991 168.644C27.4983 168.203 26.9507 167.872 26.7317 167.927C26.5674 167.927 26.0199 168.258 25.5271 168.754C25.0343 169.195 24.7058 169.966 24.8153 170.462ZM64.7307 170.683C64.8949 171.73 65.2782 172.061 66.428 172.171C67.4136 172.281 68.1254 172.006 68.4539 171.344C68.7824 170.683 68.7277 170.021 68.1801 169.14C67.7421 168.478 67.0303 167.927 66.5923 167.927C66.209 167.927 65.552 168.203 65.2234 168.588C64.8949 168.974 64.6759 169.911 64.7307 170.683ZM62.9785 70.0351C70.3155 70.2005 72.7794 70.421 76.1194 71.4131C78.3643 72.0746 81.7042 73.4525 83.5111 74.3896C85.318 75.3266 87.9461 77.2558 89.4792 78.6338C91.6146 80.618 92.1074 81.3346 91.8336 82.3267C91.6146 83.0433 90.9028 83.7047 90.2458 83.9252C89.315 84.1457 88.5484 83.7598 87.3439 82.6023C86.4678 81.6653 84.4967 80.1771 82.9636 79.1849C81.4852 78.2479 78.2548 76.8148 75.8456 75.988C71.6844 74.61 70.9178 74.4998 60.7884 74.4998C54.9298 74.4998 49.8377 74.2793 49.4544 74.0588C49.0711 73.8384 48.7426 73.3423 48.7426 72.9565C48.7426 72.5706 49.0711 71.9092 49.3997 71.5234C49.7829 71.0824 50.9328 70.5312 51.9731 70.3107C53.0682 70.0903 57.996 69.9249 62.9785 70.0351ZM61.8835 78.9093C66.4828 79.0196 70.5345 79.4054 72.5604 79.9566C74.3673 80.4527 77.4335 81.6102 79.4046 82.6023C81.6495 83.7047 84.1682 85.5237 89.534 91.0356L85.1537 91.1458C81.2115 91.3112 80.6639 91.2009 79.4046 89.9883C78.6381 89.2718 77.4882 88.3899 76.8312 88.0591C76.1194 87.7284 74.3673 87.4528 70.0965 87.4528V91.8624L80.2259 92.138L78.5833 93.7915C77.6525 94.6735 75.7909 95.7758 74.4768 96.1617C72.8889 96.6026 69.768 96.8231 59.5291 96.5475L58.8173 93.516C58.4888 91.8073 57.5579 89.1064 56.8461 87.4528C56.0796 85.7441 54.6013 83.2087 51.4803 79.1849L53.0134 78.9645C53.8347 78.7991 57.8317 78.7991 61.8835 78.9093ZM150.146 78.6338C150.42 78.6338 150.584 79.681 150.584 80.9488C150.584 83.2087 150.475 83.4291 147.244 85.7993C145.383 87.1221 142.754 89.4922 141.386 91.0356C140.017 92.5238 137.717 95.6105 136.239 97.9255C134.76 100.185 132.844 103.878 132.023 106.193C131.147 108.453 130.161 111.816 129.723 113.634C129.34 115.453 129.066 119.753 129.066 123.28C129.121 127.91 129.449 130.777 130.271 134.029C130.928 136.454 132.297 140.202 133.337 142.407C134.432 144.612 135.253 146.541 135.253 146.706C135.253 146.816 134.213 146.982 130.599 146.982L128.847 143.289C127.861 141.194 126.547 137.281 125.89 134.58C125.014 130.887 124.686 127.91 124.686 123.005C124.686 119.036 125.014 114.847 125.562 112.532C126 110.382 127.15 106.689 128.08 104.264C129.011 101.839 131.037 97.8704 132.57 95.4451C134.158 93.0199 136.951 89.4371 138.757 87.5079C140.619 85.5788 143.795 82.7677 145.93 81.2795C148.011 79.8464 149.927 78.6338 150.146 78.6338ZM107.274 86.3504C107.438 86.3504 108.314 86.9016 110.669 88.8308L109.081 92.4136C108.205 94.3427 106.836 97.9806 106.07 100.406C105.303 102.831 104.317 106.8 103.825 109.225C103.332 111.65 102.73 116.335 102.565 119.698C102.401 123.335 102.511 127.91 102.949 131.273C103.332 134.304 104.208 138.934 104.92 141.58C105.686 144.226 106.234 146.541 106.234 146.706C106.234 146.816 105.194 146.927 101.635 146.706L100.375 141.745C99.7182 138.989 98.8968 134.304 98.5136 131.273C98.1851 128.186 98.0208 123.06 98.1851 119.698C98.3493 116.335 99.0064 111.154 99.6086 108.123C100.211 105.091 101.416 100.461 102.292 97.9255C103.168 95.3349 104.536 91.697 105.413 89.7678C106.234 87.8938 107.055 86.3504 107.274 86.3504ZM150.146 89.1064C150.42 89.1064 150.584 90.2088 150.584 91.5868C150.584 93.8467 150.31 94.3979 147.463 97.5397C145.656 99.524 143.302 103.052 141.988 105.697C140.674 108.233 139.25 111.926 138.757 113.91C138.21 116.06 137.827 119.698 137.827 123.005C137.881 126.422 138.21 129.729 138.757 131.824C139.25 133.643 140.071 136.123 140.619 137.336C141.112 138.548 142.59 141.194 146.204 146.982L140.564 146.706L138.429 142.848C137.279 140.698 135.855 137.336 135.253 135.407C134.651 133.422 133.884 129.674 133.611 127.139C133.337 124.217 133.337 120.745 133.611 118.044C133.939 115.619 134.76 111.76 135.527 109.501C136.294 107.186 137.717 103.989 138.648 102.335C139.579 100.626 140.838 98.642 141.386 97.9255C141.933 97.1538 144.069 94.8388 146.094 92.7994C148.066 90.76 149.927 89.1064 150.146 89.1064ZM114.502 91.8624C114.775 91.8624 115.651 92.4136 117.787 94.3427L116.144 98.2011C115.268 100.296 114.009 104.044 113.407 106.469C112.749 108.894 111.928 113.579 111.6 116.942C111.107 121.572 111.107 124.438 111.6 129.068C111.928 132.375 112.914 137.336 113.68 140.092C114.502 142.793 115.268 145.493 115.487 146.045C115.816 146.982 115.542 147.037 113.407 146.871C111.052 146.706 110.997 146.651 110.067 143.95C109.574 142.407 108.643 139.044 108.095 136.509C107.329 132.981 107.11 129.619 107.11 123.005C107.11 116.556 107.384 112.918 108.095 109.501C108.698 106.91 109.683 103.162 110.34 101.233C110.997 99.2484 112.147 96.327 112.804 94.7286C113.461 93.1301 114.228 91.8624 114.502 91.8624ZM122.331 96.2719C122.66 96.2719 123.481 96.768 125.398 98.4767L123.81 102.721C122.934 105.091 121.839 108.729 121.401 110.879C120.908 112.973 120.36 117.052 120.196 119.973C119.922 123.556 120.086 126.918 120.689 130.721C121.127 133.753 122.222 138.218 123.098 140.643C123.974 143.068 124.85 145.493 125.069 145.99C125.343 146.816 125.069 146.982 122.934 146.982C120.579 146.982 120.47 146.871 119.648 144.777C119.21 143.564 118.334 140.753 117.732 138.548C117.13 136.344 116.363 131.824 116.035 128.517C115.542 123.887 115.542 121.131 116.035 116.942C116.363 113.91 117.13 109.611 117.732 107.406C118.334 105.201 119.484 101.784 120.251 99.8547C121.017 97.8704 121.948 96.2719 122.331 96.2719ZM14.4122 99.9649L16.8213 100.296C18.1354 100.516 19.9423 101.012 20.8183 101.508C21.7491 101.949 23.3917 103.107 24.4868 104.099C25.5271 105.091 26.9507 106.91 27.553 108.123C28.1553 109.335 28.7576 111.65 28.9219 113.359C29.0861 115.453 28.8671 117.327 28.2101 119.422C27.4983 121.461 26.4032 123.225 24.7058 124.934C23.118 126.532 21.2016 127.8 19.4495 128.406C17.9711 128.903 16.1643 129.343 14.2479 129.343L14.4122 99.9649ZM78.8571 100.13C80.2259 100.13 82.5803 100.516 84.0586 101.012C85.8108 101.618 87.7271 102.886 89.315 104.485C90.9028 106.083 92.1622 108.012 92.7097 109.721C93.2572 111.264 93.6405 113.469 93.6405 114.682C93.6405 115.894 93.2572 118.154 92.7097 119.642C92.1622 121.406 90.9028 123.335 89.315 124.934C87.6176 126.643 85.8655 127.8 83.7849 128.462C81.7042 129.178 79.8426 129.399 77.762 129.178C76.1194 129.013 73.765 128.406 72.5604 127.8C71.3558 127.139 69.6037 125.816 68.6181 124.824C67.6873 123.776 66.3733 121.847 65.771 120.469C65.0592 118.871 64.6759 116.831 64.6759 114.682C64.6759 112.587 65.0592 110.548 65.771 108.894C66.3733 107.571 67.6873 105.587 68.6181 104.595C69.6037 103.603 71.0821 102.39 71.9034 101.894C72.7794 101.398 74.0935 100.847 74.9148 100.626C75.7361 100.406 77.4882 100.185 78.8571 100.13ZM149.927 100.626L150.256 104.209C150.529 107.13 150.365 108.233 149.544 109.886C148.996 111.044 148.12 113.304 147.627 114.957C147.135 116.776 146.751 119.918 146.751 122.674C146.751 125.265 147.025 128.517 147.354 129.84C147.682 131.218 148.504 133.588 149.27 135.076C150.201 137.115 150.584 138.824 150.584 141.415C150.639 144.722 150.584 144.942 149.708 144.171C149.215 143.73 148.011 142.021 147.025 140.312C146.04 138.659 144.561 135.296 143.74 132.871C142.59 129.399 142.262 127.414 142.262 123.225C142.262 120.028 142.59 116.611 143.192 114.406C143.685 112.477 144.78 109.611 145.547 108.067C146.313 106.579 147.573 104.264 148.449 102.941L149.927 100.626ZM42.1175 121.627C42.2817 121.627 43.4863 122.343 47.1 124.934L49.5639 123.28C50.878 122.398 52.1373 121.627 52.3016 121.627C52.4111 121.627 54.2727 122.895 56.4081 124.383C58.4888 125.926 60.0766 127.414 59.9671 127.69C59.8028 128.076 54.9845 128.296 47.2095 128.296C40.3653 128.296 34.5615 128.076 34.3424 127.855C34.1234 127.635 35.7113 126.147 37.9014 124.548C40.0368 122.95 41.9532 121.627 42.1175 121.627ZM57.777 132.706L55.8606 134.359C54.7655 135.296 52.5754 136.399 50.9328 136.895C48.5236 137.611 47.2643 137.666 44.9099 137.226C43.1578 136.95 40.8034 135.958 39.2703 134.966C37.8467 134.029 36.6968 133.092 36.6968 132.926C36.6968 132.816 41.4057 132.706 57.777 132.706Z" fill="#FF0000"/>
</svg>
